<svg width="302" height="74" viewBox="0 0 302 74" xmlns="http://www.w3.org/2000/svg" xmlns:sketch="http://www.bohemiancoding.com/sketch/ns"><title>inustagram</title><desc>Created with Sketch.</desc><g sketch:type="MSLayerGroup" fill="#fff"><g id="Group" sketch:type="MSShapeGroup"><path d="M6.043 17.683c0 .047.068.071.206.071.045.379 0 .968-.138 1.771-.136.237-.273.402-.411.496-.184.284-.321.473-.412.567-.549.19-.823.567-.823 1.134 0 .52.251 1.039.754 1.558.503.521.984.992 1.44 1.416 1.051 1.182 2.058 2.079 3.018 2.692.594.379 1.76.993 3.497 1.842.64.331 1.28.674 1.92 1.027.64.354 1.371.531 2.194.531s1.622-.306 2.401-.92l.753-.496c.686-.85 1.188-1.487 1.509-1.913l.138.142c.09 0 .16-.023.205-.071.594-.093.846-.141.754-.141.365 0 .549.19.549.566 0 1.182-.377 2.031-1.131 2.551-.756.52-1.132.898-1.132 1.134 0 .283.571.544 1.713.779.868.236 1.51.4 1.92.495 1.601.284 2.812.497 3.635.638.321.33.525.614.618.85.456.661.731 1.087.823 1.275.777 1.7 1.166 2.574 1.166 2.62l-.068.141v.141c0 .33.113.874.343 1.63.318.99.48 1.557.48 1.7.639 2.644 1.097 4.226 1.371 4.745.274.521.503.898.685 1.133l2.469 4.464.687.922c.41.756.707 1.345.891 1.771.549.756.959 1.299 1.235 1.629.366.85.618 1.488.754 1.913.32.85.481 1.628.481 2.337 0 .189-.024.471-.069.85v.992l.069.142c0 .236-.663 1.416-1.989 3.541-.412.802-.755 1.427-1.029 1.877-.274.449-.481.791-.617 1.027-.274.284-.458.485-.549.602-.093.118-.138.248-.138.391 0 .188.023.354.068.497.503 0 1.029-.049 1.578-.143.365-.283.618-.519.755-.707.594-.378 1.656-1.265 3.188-2.657 1.531-1.393 2.298-2.255 2.298-2.585 0-.33.48-.85 1.44-1.559.777-.614 1.394-1.051 1.852-1.31.457-.26.686-.436.686-.531h.274c.229 0 .571.023 1.028.071.456.047.8.071 1.029.071h.342c.138-.047.251-.071.342-.071.23 0 .388.035.481.107.091.071.16.107.206.107.364 0 .925-.047 1.679-.141.755-.096 1.314-.141 1.68-.141.092 0 .206.023.343.071h.686l.342-.071 1.646.213c.045.283.125.424.239.424.114 0 .172.355.172 1.063 0 .471-.48.707-1.44.707-.093-.095-.183-.141-.275-.141-.64 0-.959.26-.959.78v.283l.068.283c-.093.284-.138.379-.138.284.412 1.369.777 2.503 1.097 3.4 0 .047.078.117.24.212.16.094.239.306.239.637l-.068.141c-.047.047-.068.117-.068.213 0 1.463-.023 2.336-.068 2.62 0 .047-.093.129-.275.248-.183.117-.274.248-.274.39v.071c-.184.047-.458.071-.823.071-.549 0-1.12-.071-1.715-.213-.366-.188-.616-.354-.754-.495-.641-.521-1.12-.897-1.44-1.133-.503-.71-.892-1.253-1.166-1.63-1.234-1.559-2.127-2.787-2.674-3.685-.549-.896-.96-1.345-1.235-1.345-.092 0-1.144 1.109-3.155 3.329-.64.802-1.12 1.416-1.44 1.841-1.463 1.465-2.492 2.291-3.085 2.48-1.053.424-2.287.637-3.704.637-.321 0-.48-.047-.48-.141 0-.424-.162-.638-.481-.638-.32 0-.481-.685-.481-2.054 0-.284.092-.495.275-.637.182-.142.32-.308.412-.495.777-1.322 1.394-2.291 1.851-2.904.366-.85.618-1.513.754-1.984.686-1.134 1.029-1.76 1.029-1.877 0-.118.022-.354.068-.708.046-.354.069-.627.069-.815 0-.095-.023-.26-.069-.496-.047-.236-.068-.4-.068-.496l.068-.141c0-.472-.298-1.18-.892-2.126-.96-1.462-1.692-2.584-2.195-3.365-.504-.779-.868-1.381-1.096-1.805-1.555-2.455-2.379-3.801-2.469-4.038-.594-2.125-1.029-3.765-1.303-4.923-.274-1.155-.411-1.64-.411-1.452 0-.471-.162-1.133-.48-1.985-.274-.66-.527-1.321-.755-1.983-.138-.425-.343-.801-.617-1.133-.868-1.039-1.692-1.63-2.469-1.772-1.006-.094-2.012-.166-3.018-.213l-.446-.211c-.205-.094-.4-.141-.583-.141-.091 0-.171.035-.239.107-.068.069-.126.105-.172.105l-5.212-1.842c-.915-.236-1.601-.424-2.058-.566-1.646-.709-3.383-1.653-5.212-2.834-.732-.519-1.303-.873-1.713-1.061-.686-.709-1.19-1.252-1.509-1.631-.824-.707-1.441-1.203-1.853-1.488-.959-1.51-1.554-2.573-1.783-3.186-.593-1.275-1.051-2.22-1.371-2.833-.091-.19-.182-.306-.274-.354v-.638c0-.472.023-.826.069-1.063.181-.236.274-.437.274-.602 0-.166.24-.377.721-.637.48-.26.719-.437.719-.532 0-.284.068-.426.205-.426.09 0 .147.025.172.071l.103.071c.138 0 .342-.047.617-.142.274-.093.48-.141.617-.141.045 0 .068.06.068.177 0 .119.069.177.207.177.137 0 .318.024.549.071.228.047.388.072.479.072.138 0 .23-.025.275-.072.046-.047.114-.071.206-.071.137 0 .251.047.342.142.32 0 .777-.06 1.372-.177.593-.118 1.029-.178 1.302-.178 2.377-.047 4.297-.4 5.76-1.063.868-.329 1.51-.566 1.92-.707.457-.377.8-.684 1.029-.921.777-.662 1.44-1.287 1.99-1.877.549-.591.959-1.075 1.235-1.452l1.509-1.347c.868-.566 1.531-.966 1.989-1.203.868-.567 1.531-1.015 1.99-1.346.959-.189 1.668-.306 2.125-.354 1.691-.426 3.018-.639 3.977-.639 1.51 0 3.292.261 5.35.779 2.239.567 3.841 1.229 4.799 1.984.641.708 1.075 1.299 1.304 1.771 1.508 1.841 2.422 3.046 2.744 3.613.456.946.777 1.653.959 2.125.824 1.605 1.417 2.809 1.784 3.613.319.991.524 1.723.616 2.195.456.991 1.201 2.315 2.229 3.967 1.029 1.653 1.771 2.645 2.229 2.974 1.144.851 1.99 1.276 2.538 1.276.181 0 .456.117.823.353.364.238.571.354.617.354h.205c.138.141.16.567.069 1.274l.068.142c0 .047-.047.095-.138.142-2.057 0-3.726-.451-5.006-1.355-.685-.475-1.279-1.067-1.782-1.781-.047-.095-.458-.831-1.235-2.208-.549-.903-.959-1.591-1.234-2.067-.413-1.045-.686-1.829-.824-2.35-.823-1.852-1.418-3.229-1.783-4.132-.959-1.805-1.714-3.11-2.264-3.919-1.279-2.185-2.331-3.609-3.154-4.275-.915-.427-1.622-.71-2.125-.855-2.562-1.091-4.207-1.638-4.939-1.638-.138 0-.412.071-.823.212h-.755c-.183 0-.48-.035-.891-.106-.412-.071-.732-.107-.96-.107-2.013 0-4.139.874-6.379 2.62-.868.85-1.554 1.583-2.057 2.196-.641.613-1.12 1.063-1.44 1.346-.732.52-1.281.898-1.646 1.133-.457.379-.88.757-1.269 1.133-.389.379-.629.662-.721.851-.822.283-1.462.472-1.92.567-1.281.52-2.286.897-3.018 1.133-.731.236-2.102.354-4.115.354-.046 0-.08.036-.102.107-.023.071-.08.106-.172.106-.093 0-.183-.094-.275-.284-.274 0-.572-.023-.891-.071l-.199.214c-.091 0-.114.047-.068.141-.093 0-.162.047-.207.141zm22.494 1.062c.091.236.182.379.275.426.045.566.068.944.068 1.133 0 .378-.057.566-.172.566-.115 0-.343.212-.686.638-.342.424-.582.637-.719.637-.138 0-.343.025-.618.071-.274.047-.48.069-.616.069-.092 0-.172-.056-.24-.175-.068-.117-.16-.177-.274-.177-.114 0-.333-.129-.652-.391-.32-.259-.481-.435-.481-.531l-.068-.424c0-.236.035-.554.102-.956.069-.401.104-.674.104-.814l-.069-.213c0-.047.147-.224.446-.531.296-.306.468-.46.515-.46.138 0 .274-.047.412-.141.731-.094 1.12-.141 1.166-.141.409-.002.912.471 1.507 1.414zm-3.772-5.666c.228 0 .422-.046.582-.141.16-.096.263-.142.309-.142 1.234-.093 1.964-.141 2.194-.141.137 0 .319.06.549.177.228.118.434.178.617.178h.068c.138 0 .571.306 1.303.92.731.615 1.098 1.027 1.098 1.239 0 .212.045.508.137.886.091.379.138.637.138.78 0 .33-.092.495-.274.495-.047 0-.081-.035-.104-.107-.023-.07-.058-.106-.103-.106-.092 0-.251.047-.481.141-.228.096-.389.142-.479.142.044 0-.023-.082-.205-.248-.184-.166-.298-.248-.342-.248-.367-.71-.642-1.252-.823-1.629-.275-.142-.549-.236-.824-.284-.274-.047-.709-.047-1.302 0 0-.047-.047-.071-.138-.071l-.068.071-.549.141c0-.047-.047-.093-.138-.141-.047 0-.068.071-.068.212-.138 0-.343-.058-.618-.176-.274-.117-.411-.236-.411-.354s-.035-.32-.103-.602c-.068-.285-.103-.496-.103-.639.047-.186.094-.306.14-.353zm9.67 3.897c-.047.236 0 .354.136.354h.206c.091.379.137.897.137 1.559 0 .094-.046.295-.137.601-.092.309-.138.486-.138.531-.047.567-.069 1.985-.069 4.251 0 2.407.114 4.841.343 7.295.182.991.321 1.747.412 2.267.138.898.229 1.654.275 2.267l.205 2.48c.365.803.685 1.394.959 1.772.456.945.892 1.535 1.303 1.77.959.426 1.92.638 2.88.638.275 0 .549-.023.823-.071.503-.141.835-.401.994-.778.161-.378.332-.756.515-1.134.594-1.275.891-3.165.891-5.667v-3.895c0-.426-.48-3.023-1.44-7.793-.137-1.179-.205-2.077-.205-2.69-.183-.567-.321-.968-.411-1.206-.093-1.084-.138-1.745-.138-1.983 0-.094.023-.188.069-.284.274-.047.412-.129.412-.247 0-.117.045-.177.138-.177.137 0 .309.047.515.141.205.096.308.154.308.177 0 .023.092.034.274.034l.275-.07c.091 0 .138.118.138.354v.567c.137.283.229.519.275.707.959 3.637 1.552 6.446 1.782 8.43.046.19.069 1.299.069 3.329v1.274c0 .237.057.567.171.992.114.425.172.756.172.992 0 .283-.069.649-.206 1.098-.137.449-.229.768-.274.957-.23 2.408-.526 4.156-.892 5.242-.686 1.937-1.852 3.118-3.498 3.542-.915.237-1.485.354-1.714.354-.686 0-1.336-.117-1.954-.354-.617-.236-1.063-.531-1.337-.885s-.549-.719-.823-1.098c-1.006-1.227-1.692-2.904-2.057-5.03-.137-1.179-.23-2.077-.275-2.691-.045-.284-.16-.826-.342-1.629-.183-.66-.274-1.227-.274-1.7v-1.983c0-.236-.068-.662-.205-1.274-.138-.614-.206-1.087-.206-1.419 0-.187.035-.507.103-.956.068-.449.102-.791.102-1.027 0-.236-.058-.579-.171-1.028-.115-.448-.172-.79-.172-1.027 0-3.493.297-5.453.892-5.878h.823l.343.001zm19.886 49.797c-.457-1.133-.685-1.677-.685-1.629 0 .047.044-.047.137-.284 0-.378-.263-.707-.789-.99-.526-.285-.971-.427-1.337-.427-.092 0-.195.023-.308.071-.114.047-.241.071-.378.071h-1.7149999999999999l-.069-.282-.068.211c.32.613.96 1.724 1.92 3.329 1.097 1.747 1.805 2.739 2.127 2.975.685.473 1.234.708 1.646.708.365 0 .549-.166.549-.494 0-.047-.08-.118-.241-.214-.16-.094-.239-.306-.239-.637 0-.047.046-.166.138-.354 0-.236-.23-.921-.688-2.055zM76.544 30.858c-.231 0-.595-.036-1.098-.108-.504-.069-.892-.105-1.166-.105-.229 0-.582.035-1.063.105-.48.071-.858.108-1.132.108-.229 0-.573-.036-1.028-.108-.458-.069-.824-.105-1.098-.105-.412 0-1.053.035-1.92.105-.869.071-1.533.108-1.99.108h-2.194c-1.006-.047-1.761-.071-2.264-.071-.229 0-.573-.022-1.029-.07-.457-.047-.823-.071-1.096-.071h-2.194c-.503 0-.756-.44-.756-1.32 0-.292.138-.537.412-.733.093-.048.458-.074 1.097-.074h20.781c.412.141.617.567.617 1.276 0 .613-.366.969-1.097 1.062l-1.782.002zm-10.494 30.672c.229 0 .56-.024.994-.071.434-.047.766-.071.995-.071.456 0 1.154.024 2.092.071.935.047 1.634.071 2.09.071.274 0 .64-.024 1.098-.071h1.096c3.2 0 4.892.141 5.076.424.045.096.068.355.068.78 0 .661-1.007.99-3.017.99h-12.755c-.457 0-1.166-.023-2.125-.071-.96-.047-1.692-.071-2.194-.071-1.327 0-2.081-.024-2.264-.071-.456-.093-.686-.26-.686-.495 0-.85.23-1.345.686-1.487-.137.048 2.812.072 8.846.072zm-.959-6.447c0-.33-.058-.838-.172-1.523-.114-.683-.172-1.215-.172-1.592 0-.19.114-.472.343-.85v-.851c0-.519-.039-1.251-.114-2.196-.152-1.133-.229-1.865-.229-2.195v-2.622c-.092-.518-.183-1.32-.274-2.407-.046-1.369-.526-2.101-1.44-2.196-1.51-.047-3.109-.141-4.8-.284-.457-.093-.686-.306-.686-.637 0-.614.105-.991.312-1.134.207-.142.614-.212 1.215-.212-.509 0 1.111.119 4.861.355h1.596c-.601 0 1.273.141 5.625.424.74.047 1.504.093 2.293.138.462.184.694.594.694 1.234 0 .503-.658.753-1.975.753-.47 0-1.151-.035-2.045-.106-.894-.071-1.576-.105-2.045-.105-.705 0-1.152.495-1.339 1.487-.047.236-.071 1.016-.071 2.338 0 .377.053.874.16 1.487.053.756.081 1.275.081 1.558.159 2.693.239 5.502.239 8.431 0 1.652.456 2.502 1.371 2.549 1.371.047 3.063.237 5.075.567.365.189.549.591.549 1.204 0 .567-.322.874-.965.922-1.515-.141-3.329-.284-5.441-.425-.092 0-.287-.036-.585-.107-.298-.07-.517-.105-.653-.105-.689 0-1.735.071-3.135.211-1.4.141-2.467.213-3.202.213-.69 0-1.126-.046-1.309-.137-.366-.183-.551-.573-.551-1.166 0-.549 1.051-.823 3.155-.823.319 0 .742-.045 1.269-.141.525-.095.88-.141 1.063-.141.868-.047 1.303-.685 1.303-1.913zM77.09 61.53h26.198000000000004c.594 0 .892.409.892 1.234 0 .594-1.006.89-3.018.89h-19.887999999999998c-2.789 0-4.273-.02-4.458-.065-.456-.089-.686-.31-.686-.664.001-.93.322-1.395.96-1.395zm24.072-30.884h-11.041c-.23 0-.561.035-.995.105-.435.071-.743.108-.926.108-.778 0-1.932-.036-3.464-.108-1.531-.069-2.686-.105-3.464-.105h-4.046c-.686 0-1.029-.356-1.029-1.063 0-.472.091-.768.275-.887.182-.117 3.359-.177 9.532-.177h17.418000000000003c.456 0 .686.415.686 1.242 0 .634-.389.999-1.166 1.096.09-.141-.503-.211-1.783-.211zm-21.201 8.43c-.225 0-.35.222-.372.668-.022.444-.055 1.254-.1 2.426 0 .236-.023.61-.068 1.126-.045.515-.068.914-.068 1.195v6.75c0 4.172-.046 6.424-.137 6.752-.138.468-.526.702-1.166.702-.641 0-.961-.563-.961-1.69v-13.1c0-4.506.183-7.323.549-8.45.138-.423.274-.634.412-.634 1.462 0 4.115 3.401 7.955 10.2l1.029 1.701c1.005 1.842 2.72 4.604 5.143 8.287.641.804 1.303 1.206 1.99 1.206.138 0 .251-.071.343-.213.09-.141.251-.944.48-2.408.275-1.794.411-4.367.411-7.721 0-1.511-.136-3.211-.411-5.1 0-.094-.205-1.227-.617-3.4-.321-1.418-.457-2.526-.411-3.33v-.07c.136-.284.251-.591.342-.922.182-.188.503-.284.96-.284.456 0 .754.473.892 1.417.181 1.087.503 3.638.959 7.651.138 1.039.297 2.69.48 4.958-.091 0-.183.734-.275 2.196-.134 2.079-.247 3.566-.336 4.463-.225 1.842-.586 3.259-1.082 4.251-.315.662-1.103.99-2.364.99-.585 0-1.464-.673-2.635-2.018-1.172-1.346-2.23-2.821-3.174-4.427-.226-.519-.585-1.25-1.081-2.196-.269-.377-.665-1.002-1.181-1.877-.518-.873-1.072-1.877-1.655-3.01-.181-.472-.496-1.134-.946-1.984-.269-.377-.676-.969-1.216-1.771-.225-.426-.585-1.039-1.081-1.842-.224-.328-.427-.494-.607-.494zM126.879 30.716h-26.747000000000003c-.503 0-.754-.433-.754-1.303 0-.23.137-.434.411-.618.274-.182 1.921-.275 4.939-.275 1.005 0 2.492.035 4.458.107 1.966.071 3.429.107 4.389.107.228 0 .559-.023.994-.071.433-.047.742-.071.926-.071.549 0 1.348-.023 2.399-.071h2.333c4.297 0 6.56.024 6.788.07.412.137.618.549.618 1.235.003.595-.25.891-.752.891zm-19.819 30.671h6.515999999999999c.502 0 1.234.047 2.194.141.959.093 1.668.141 2.125.141h4.664c.273 0 .64-.048 1.097-.141.456-.095.823-.141 1.097-.141 1.966 0 2.949.472 2.949 1.418 0 .141-.149.318-.446.531-.298.211-1.909.317-4.835.317h-22.289c-.32-.092-.549-.229-.685-.409v-.548c0-.592.229-.934.685-1.025h2.264c.503 0 1.279-.048 2.332-.141 1.052-.095 1.829-.142 2.333-.142zm-4.595-13.846v1.776c0 2.748.872 4.998 2.618 6.751.458.522 1.31.996 2.551 1.422.321.095.941.141 1.86.141.735 0 1.321-.047 1.756-.141.436-.096 1.067-.557 1.895-1.385.828-.83 1.402-1.505 1.722-2.026.185-.282.507-1.207.966-2.771.826-2.794 1.239-4.452 1.239-4.976 0-.236-.069-.709-.205-1.42-.138-.71-.205-1.185-.205-1.421-.046-.853-.068-2.179-.068-3.98 0-.236.034-.58.103-1.03.068-.449.126-.769.172-.959 0-.38.056-.818.172-1.316.114-.497.468-.745 1.063-.745.412 0 .754.707 1.029 2.124.182 1.087.274 1.96.274 2.622 0 1.51-.023 2.597-.068 3.258l-.205 2.62c0 .567.593 3.449 1.783 8.642.091.614.263 1.512.515 2.691.251 1.182.378 1.913.378 2.197 0 .897-.39 1.346-1.167 1.346-.321 0-.572-.118-.754-.355-.046-.047-.297-1.368-.754-3.965-.458-2.362-.938-3.542-1.44-3.542-.184 0-.344.166-.48.495-.275.567-.71 1.44-1.303 2.621-.183.282-.616.779-1.303 1.488l-1.372 1.204c-.32.19-1.062.379-2.229.567-1.165.188-1.999.282-2.503.282h-.205c-1.143-.047-2.287-.449-3.428-1.205-.184-.093-.641-.542-1.372-1.344-2.057-2.173-3.087-4.817-3.087-7.934 0-1.039.046-1.936.137-2.692.092-.755.251-1.984.481-3.683.045-.424.138-1.063.274-1.914.412-1.416 1.303-2.974 2.676-4.674.273-.047.502-.071.685-.071.503 0 .8.402.892 1.207 0 .142-.047.309-.137.497-.869 1.09-1.532 2.18-1.989 3.269-.644 1.661-.963 3.769-.963 6.328zM143.27 30.646h-10.699000000000002c-.274 0-.65.035-1.13.105-.481.071-.858.108-1.133.108-.504 0-1.235-.036-2.194-.108-.96-.069-1.692-.105-2.194-.105h-2.264c-.503-.147-.755-.564-.755-1.246 0-.537.778-.831 2.332-.88h21.467c1.417.048 2.492.071 3.223.071.549 0 .824.354.824 1.063 0 .52-.206.85-.618.992-.092.047-.847.047-2.263 0h-4.595000000000001zm-12.756 31.025h6.446c.183 0 .491-.048.926-.141.433-.095.765-.141.993-.141.275 0 .664.047 1.167.141.503.093.892.141 1.166.141h4.526999999999999c3.246 0 4.939.144 5.075.434.046.04.069.166.069.372 0 .453-.16.785-.481.99-.137.082-2.515.125-7.132.125-.503 0-1.234.019-2.195.06h-17.418c-.503 0-.755-.219-.755-.66 0-.794.252-1.235.755-1.322h4.595l2.264.001zm6.859-22.88c-1.646 0-3.431.213-5.35.637-.593.047-1.439.213-2.537.495-.366.143-.822.426-1.371.851-.549.424-.823.779-.823 1.063l.068.071c1.142.991 2.698 1.747 4.662 2.267 1.692.377 3.361.756 5.007 1.133.455.189 1.142.449 2.057.778.411.096 1.05.309 1.92.638 2.788 1.275 4.183 3.4 4.183 6.376v.071c-.23 1.18-1.486 2.432-3.772 3.753-1.783 1.087-3.498 1.866-5.143 2.338-1.052.33-2.356.495-3.908.495-.411 0-1.28-.282-2.607-.85-3.201-1.322-4.8-3.117-4.8-5.384 0-.567.412-.85 1.235-.85.182.047.319.141.411.283.092.142.182.331.275.567.274.567.708 1.205 1.303 1.914.593.707 1.485 1.275 2.675 1.7.639.236 1.622.354 2.948.354 2.515 0 5.12-1.039 7.818-3.116.869-.663 1.327-1.016 1.372-1.063 0-.33.023-.733.068-1.204 0-.709-.479-1.511-1.44-2.409-.549-.471-1.417-.966-2.605-1.488-.96-.378-2.72-.896-5.281-1.559-2.926-.753-4.824-1.345-5.692-1.77-2.332-.992-3.704-2.29-4.115-3.898.594-.943 2.24-1.911 4.938-2.903.594-.236 1.509-.543 2.744-.922 2.012-.33 3.954-.495 5.83-.495 1.234 0 2.445.155 3.634.463 1.738.443 2.607 1.085 2.607 1.925 0 .486-.389.728-1.166.728-.321 0-1.11-.165-2.367-.496-1.26-.33-2.185-.496-2.777-.496zM168.438 30.646h-16.116999999999997c-4.298 0-6.605-.045-6.927-.134-.456-.088-.685-.376-.685-.862 0-.444.136-.753.411-.929.138-.132.984-.2 2.537-.2h16.116c1.097.046 1.92.068 2.469.068 4.206 0 6.537.044 6.994.132.457.088.686.443.686 1.062 0 .398-.23.665-.686.798-.138.044-1.738.066-4.801.066zm-15.842 30.884h20.161c.732.096 1.098.464 1.098 1.099 0 .537-.114.879-.342 1.025h-24.76c-.503-.046-.868-.067-1.097-.067-1.965 0-2.948-.206-2.948-.617 0-.777.229-1.234.685-1.37.232-.047 2.631-.069 7.203-.069zm19.408-21.959c-1.051 0-2.605-.059-4.663-.178-2.056-.116-3.612-.175-4.662-.175h-.892c-.411.047-.708.07-.892.07-1.417 0-2.126.379-2.126 1.133 0 .52.102 1.37.305 2.551.254 1.416.381 2.291.381 2.62l.138 5.527c.091.613.206 1.511.343 2.691l.343 6.02-.138.071c-.138.707-.342 1.063-.617 1.063-.549 0-.95-.141-1.2-.424-.252-.284-.561-4.275-.926-11.971-.183-3.212-.411-5.643-.686-7.296-.045-.472-.342-.968-.891-1.489-.549-.518-1.052-.778-1.509-.778h-3.1559999999999997c-1.052-.047-1.829-.071-2.332-.071-1.097 0-1.761-.023-1.99-.071-.777-.188-1.166-.637-1.166-1.346 0-.567.868-.85 2.606-.85 1.234 0 3.109.071 5.624.212 2.513.141 4.389.211 5.623.211h4.664c.319.048.742.06 1.269.036.525-.023.88-.036 1.063-.036 3.246 0 5.143.119 5.692.354.412.096.616.425.616.992.001.756-.273 1.133-.822 1.133zM168.78 61.388h26.679000000000002c.273.151.411.428.411.831 0 .957-.251 1.435-.754 1.435h-24.343c-2.012 0-3.018-.352-3.018-1.056 0-.807.343-1.21 1.028-1.21zm25.991-30.812c-.182.047-.822.071-1.92.071h-4.388999999999999c-.229 0-.607.035-1.132.105-.525.071-.925.108-1.2.108-.274 0-.674-.036-1.2-.108-.526-.069-.903-.105-1.132-.105-.457 0-1.12.035-1.989.105-.868.071-1.532.108-1.989.108-.458 0-1.177-.036-2.16-.108-.984-.069-1.704-.105-2.162-.105-.274 0-.674.035-1.199.105-.526.071-.926.108-1.2.108-.275 0-.663-.036-1.166-.108-.503-.069-.892-.105-1.165-.105h-2.607c-.182-.138-.275-.503-.275-1.098 0-.502.206-.799.618-.89.273-.091 1.738-.138 4.389-.138h17.627000000000002c.274 0 .661.035 1.165.107.503.071.892.107 1.166.107l1.714-.213c.503 0 .777.025.823.071.32.19.48.401.48.637.001.707-.366 1.157-1.097 1.346zm-22.081 17.85c.411-.047.914-.732 1.508-2.054l1.028-2.551c.458-.85.823-1.463 1.098-1.842 1.327-2.455 2.217-4.463 2.675-6.021.319-1.038.572-1.557.754-1.557.092 0 .388.211.892.637.274.189.777.92 1.508 2.196.731 1.275 1.211 2.149 1.441 2.62l1.851 4.995c.412 1.11.754 1.925 1.028 2.444.366.99.756 1.677 1.166 2.054.274.284.433.497.48.638v.566l-.342.284c1.142 3.683 1.713 6.444 1.713 8.287 0 .801-.23 1.205-.685 1.205-.642 0-1.075-.288-1.303-.863-.321-1.774-.527-3.165-.617-4.172-.275-1.199-.549-2.23-.822-3.092-.275-.671-1.052-1.055-2.334-1.151-4.662-.188-7.109-.284-7.337-.284-.457 0-.994.237-1.613.708-.617.473-1.041.921-1.269 1.346-.458 1.133-.938 2.267-1.44 3.401-.731 1.557-1.395 2.526-1.99 2.903-.822-.047-1.234-.33-1.234-.85 0-.33.525-1.499 1.578-3.507 1.05-2.006 1.576-3.246 1.576-3.718 0-.236-.102-.496-.308-.78-.206-.283-.309-.613-.309-.991 0-.428.435-.71 1.304-.853zm6.994-8.783c-.868 1.512-1.44 2.573-1.714 3.187-.365.897-.64 1.558-.822 1.984-.915 2.078-1.372 3.092-1.372 3.045 0 .567.937.852 2.812.852.549 0 1.314.034 2.297.105.984.07 1.725.106 2.23.106.822 0 1.233-.376 1.233-1.133 0 .141-.411-.896-1.233-3.116-.412-1.18-.71-2.077-.892-2.692-.321-.802-.755-1.745-1.303-2.833-.092-.188-.206-.284-.342-.284-.368 0-.664.26-.893.78zM191.069 61.459h3.566c1.6.047 2.811.071 3.634.071.594 0 1.463-.024 2.607-.071h2.605c.23 0 .572-.024 1.029-.071.456-.047.777-.071.959-.071.228 0 .56.035.995.107.433.071.765.107.994.107.594 0 1.508-.035 2.744-.107 1.234-.071 2.148-.107 2.744-.107 1.874 0 4.389.074 7.542.22.457.145.687.583.687 1.316 0 .486-.984.73-2.949.73-1.19 0-2.995.024-5.419.072h-20.093999999999994c-1.738 0-2.697-.189-2.881-.566-.09-.096-.136-.354-.136-.779.002-.567.458-.85 1.373-.85zm21.602-30.601c-.594 0-1.475-.023-2.64-.071-1.166-.046-2.023-.07-2.572-.07-.778 0-1.897.024-3.361.07-1.464.048-2.583.071-3.361.071-.274 0-.731-.036-1.371-.108-.64-.069-1.097-.105-1.372-.105-.868 0-2.125.024-3.771.071h-3.703c-.503 0-.755-.213-.755-.638 0-.708.137-1.179.411-1.417 2.376-.093 4.137-.141 5.282-.141h20.23c2.925 0 4.526.048 4.799.141.503.142.756.544.756 1.205 0 .473-.253.78-.756.92-.135.049-2.742.071-7.817.071zm-6.172 5.595c-2.332 0-4.55.473-6.652 1.418-.183.047-.869.495-2.057 1.346-.457.283-1.097.756-1.92 1.417-.274.236-.731.897-1.371 1.983-.274.425-.642 1.087-1.098 1.983-.229.615-.343 1.936-.343 3.968 0 2.219 1.19 4.249 3.566 6.091.412.33 1.029.78 1.852 1.346.503.141 1.235.378 2.196.709.411.189 1.073.449 1.987.778.458.095 1.715.141 3.773.141 1.098 0 2.263-.357 3.497-1.071 1.235-.713 2.057-1.569 2.469-2.57.091-.284.138-.951.138-1.997 0-1.048-.446-1.95-1.338-2.712-.891-.762-1.885-1.142-2.983-1.142.046 0-.754.071-2.4.211-1.007.049-2.994.168-5.967.357-.138.047-.389.094-.755.141-.366.047-.663.071-.891.071-.595 0-.892-.424-.892-1.274 0-.236.138-.471.412-.708.091-.047.833-.236 2.228-.566 1.395-.33 2.23-.507 2.504-.531.274-.024.823-.036 1.646-.036 2.606 0 3.841.024 3.704.071l.411.093.343.048c.914 0 2.148-.2 3.703-.598 1.28-.311 1.943-.465 1.99-.465.593 0 .892.308.892.922 0 .424-.298.838-.892 1.239-.595.401-.892.72-.892.957l.069.141c.777.945 1.166 2.503 1.166 4.675 0 1.133-.412 2.315-1.235 3.542-.503.805-1.28 1.513-2.331 2.125-1.372.804-3.704 1.205-6.996 1.205-.046 0-.959-.258-2.744-.778-.594-.096-1.417-.307-2.468-.638-.275-.095-1.075-.567-2.4-1.417-1.646-1.085-2.903-2.289-3.772-3.612-.321-.472-.754-1.204-1.303-2.195-.321-.756-.481-2.268-.481-4.534 0-.707.32-1.84.96-3.4.228-.567.594-1.393 1.097-2.479.182-.284.892-.968 2.126-2.055 3.246-2.879 7.177-4.321 11.796-4.321.365 0 1.201.202 2.503.603 1.303.401 2.115.719 2.434.956.319.236.48.615.48 1.133 0 .141-.149.309-.445.496-.298.19-.538.284-.72.284-.32 0-1.075-.224-2.264-.674-1.189-.449-1.966-.674-2.331-.674zM242.709 30.707c-.184.101-1.83.151-4.939.151-.321 0-.8-.036-1.44-.108-.641-.069-1.12-.105-1.44-.105-.321 0-.813.035-1.474.105-.663.071-1.155.108-1.475.108-9.922 0-14.926-.048-15.018-.146-.32-.243-.48-.535-.48-.875 0-.878.275-1.316.822-1.316.23 0 .594.035 1.098.107.503.071.867.107 1.098.107.318 0 .776-.036 1.371-.107.593-.071 1.05-.107 1.371-.107h7.748999999999999c.823 0 2.081.026 3.772.076 1.691.051 2.949.075 3.772.075 3.565 0 5.394.025 5.486.075.32.253.481.68.481 1.284.001.3-.251.527-.753.677zm-23.248 30.752h1.371c.593.047 1.05.071 1.371.071 1.05 0 2.663-.035 4.835-.107 2.171-.071 3.806-.107 4.903-.107.275 0 .721.026 1.337.076.617.05 1.063.075 1.336.075 5.395 0 8.184.05 8.367.152.365.25.549.5.549.753 0 .754-.366 1.182-1.097 1.281h-25.509000000000004c-.274-.302-.412-.781-.412-1.438-.001-.504.982-.756 2.949-.756zm.342-26.068c.092.284.549.424 1.372.424.457 0 1.119-.059 1.989-.177.868-.117 1.531-.176 1.989-.176 2.332 0 4.801.354 7.408 1.062.549.141 1.302.614 2.263 1.417 1.098.944 1.703 1.618 1.817 2.018.114.402.172 1.5.172 3.293 0 .473-.046.78-.137.923-.412.802-1.281 1.665-2.607 2.586-1.326.92-2.493 1.522-3.497 1.806-.823.282-2.012.543-3.566.778-.137 0-.205.047-.205.141 0 1.04 2.698 3.093 8.092 6.164.823.519 1.44.896 1.853 1.133.592.379.936.613 1.028.707.182.238.274.567.274.992 0 .473-.32.707-.96.707-.32 0-1.692-.732-4.115-2.195-.914-.473-1.577-.826-1.989-1.063-1.464-1.038-2.561-1.842-3.291-2.409l-1.646-1.274c-1.097-.896-2.356-2.078-3.773-3.541-.365-.141-.685-.26-.959-.357-.412-.187-.709-.353-.892-.495-.183 0-.274.52-.274 1.559 0 .379.046.911.138 1.594.09.685.137 1.216.137 1.594 0 1.701.023 2.858.068 3.471.092 1.842.138 2.55.138 2.125 0 .85-.32 1.275-.959 1.275-.595 0-.938-.213-1.029-.639-.183-2.313-.274-4.273-.274-5.88-.138-2.171-.23-4.65-.274-7.438-.047-.187-.081-.448-.104-.777-.023-.331-.034-.567-.034-.71 0-.188.022-.436.068-.744.046-.307.069-.531.069-.673v-1.63c.044-.707.068-1.25.068-1.629 0-.188-.137-.755-.411-1.701l.137-.495.069-.283c0-.236-.069-.555-.205-.957-.138-.401-.205-.697-.205-.886 0-.896.342-1.346 1.028-1.346.499.002.911.569 1.231 1.702zm.343 7.862c-.093.757-.138 1.23-.138 1.418 2.011 1.653 4.39 2.48 7.133 2.48.731 0 1.817-.295 3.257-.886 1.44-.59 2.457-1.121 3.052-1.594.914-.801 1.416-1.44 1.509-1.913v-.141c0-1.51-.321-2.525-.959-3.046-1.464-1.275-4.825-1.914-10.082-1.914-.594 0-1.302.096-2.126.284-1.097.236-1.646.519-1.646.85 0 .095-.023.237-.069.425v.354c0 .236.023.602.069 1.098.046.496.069.862.069 1.097 0 .378-.024.874-.069 1.487zM238.387 61.388h26.677c.274.151.412.428.412.831 0 .957-.253 1.435-.754 1.435h-24.346c-2.012 0-3.018-.352-3.018-1.056 0-.807.344-1.21 1.029-1.21zm25.991-30.812c-.182.047-.823.071-1.92.071h-4.390000000000001c-.229 0-.606.035-1.131.105-.526.071-.925.108-1.2.108-.274 0-.674-.036-1.2-.108-.526-.069-.904-.105-1.133-.105-.457 0-1.12.035-1.989.105-.868.071-1.531.108-1.989.108-.458 0-1.177-.036-2.16-.108-.984-.069-1.704-.105-2.161-.105-.274 0-.674.035-1.199.105-.526.071-.926.108-1.201.108s-.663-.036-1.166-.108c-.503-.069-.891-.105-1.165-.105h-2.606c-.183-.138-.275-.503-.275-1.098 0-.502.206-.799.617-.89.274-.091 1.738-.138 4.389-.138h17.627c.274 0 .661.035 1.165.107.503.071.892.107 1.167.107l1.714-.213c.503 0 .777.025.822.071.32.19.481.401.481.637.001.707-.366 1.157-1.097 1.346zm-22.082 17.85c.411-.047.914-.732 1.508-2.054l1.029-2.551c.457-.85.823-1.463 1.097-1.842 1.327-2.455 2.218-4.463 2.676-6.021.318-1.038.571-1.557.754-1.557.091 0 .388.211.892.637.275.189.777.92 1.509 2.196.731 1.275 1.211 2.149 1.44 2.62l1.852 4.995c.412 1.11.753 1.925 1.028 2.444.366.99.755 1.677 1.166 2.054.274.284.433.497.48.638v.566l-.342.284c1.142 3.683 1.713 6.444 1.713 8.287 0 .801-.23 1.205-.685 1.205-.641 0-1.075-.288-1.303-.863-.32-1.774-.527-3.165-.616-4.172-.275-1.199-.549-2.23-.824-3.092-.274-.671-1.051-1.055-2.333-1.151-4.662-.188-7.109-.284-7.337-.284-.457 0-.994.237-1.612.708-.618.473-1.041.921-1.269 1.346-.458 1.133-.938 2.267-1.44 3.401-.732 1.557-1.395 2.526-1.99 2.903-.823-.047-1.234-.33-1.234-.85 0-.33.525-1.499 1.576-3.507 1.051-2.006 1.578-3.246 1.578-3.718 0-.236-.103-.496-.309-.78-.205-.283-.309-.613-.309-.991 0-.428.436-.71 1.304-.853zm6.994-8.783c-.869 1.512-1.44 2.573-1.714 3.187-.366.897-.641 1.558-.823 1.984-.914 2.078-1.371 3.092-1.371 3.045 0 .567.937.852 2.811.852.549 0 1.314.034 2.298.105.983.07 1.725.106 2.229.106.823 0 1.234-.376 1.234-1.133 0 .141-.411-.896-1.234-3.116-.412-1.18-.71-2.077-.892-2.692-.321-.802-.755-1.745-1.303-2.833-.093-.188-.206-.284-.344-.284-.366 0-.663.26-.892.78zM287.01 30.646h-24.966c-.914 0-1.371-.356-1.371-1.063 0-.425.136-.755.41-.992.093-.047.938-.071 2.538-.071h25.443c.549 0 .823.417.823 1.246 0 .539-.39.831-1.167.88h-1.711zm-23.385 30.741h25.309000000000005c.731.108 1.096.565 1.096 1.376 0 .377-.16.674-.481.89h-23.591c-3.522 0-5.28-.236-5.28-.707 0-.756.343-1.228 1.028-1.416.275-.095.914-.142 1.92-.142zm15.362-13.954c-.183 0-.479.354-.892 1.063-.457.896-.731 1.393-.822 1.488-1.692 2.03-3.703 2.974-6.036 2.833h-.136c-.504-.047-1.212-.507-2.127-1.381-.914-.873-2.011-2.657-3.291-5.349-.184-.377-.412-.567-.686-.567-.229 0-.342.238-.342.71-.183 1.699-.275 3.307-.275 4.816 0 .85-.114 2.456-.343 4.816-.274 2.691-.526 4.109-.754 4.249h-.411c-.733 0-1.098-.26-1.098-.778 0-1.179.138-3.635.412-7.366 0-.52.023-1.276.068-2.268.092-.424.205-1.109.343-2.054 0-.992.068-2.479.205-4.463.046-.519.138-1.322.274-2.408.046-1.322.137-2.858.272-4.604.137-.613.546-.921 1.227-.921.318 0 .566.496.748 1.489.09.282.181.732.272 1.346.09.613.25 1.605.477 2.974.363 1.559 1.02 3.378 1.974 5.455.09.19.454.757 1.09 1.7 1.044 1.606 1.792 2.408 2.246 2.408.543 0 1.179-.094 1.905-.283.407-.142 1.065-.744 1.973-1.806.908-1.063 1.452-1.854 1.634-2.373.181-.519.433-1.322.749-2.408.18-.473.409-1.204.68-2.196.09-.33.34-1.723.749-4.179.272-1.559.612-2.338 1.02-2.338.862 0 1.294.543 1.294 1.629 0 .567-.035 1.417-.102 2.55-.068 1.133-.103 1.982-.103 2.55 0 .424.017 1.016.051 1.772.069.898.119 1.511.154 1.842v1.983c0 4.015.892 8.241 2.674 12.68-.09 1.084-.503 1.629-1.234 1.629 0-.048-.114-.189-.342-.425-.686-.85-1.327-2.479-1.92-4.888-.184-.659-.412-1.651-.686-2.973-.047-.567-.114-1.44-.206-2.621-.18-2.221-.408-3.332-.683-3.332zM296.131 73.424c-1.235-1.109-2.104-1.978-2.607-2.605-.64-.675-1.12-1.207-1.44-1.591-.321-.385-.549-.675-.686-.868-.869-1.013-1.646-1.519-2.331-1.519-.504 0-1.259.519-2.264 1.559l-1.989 2.195c-1.418.896-2.516 1.559-3.291 1.985-.093.046-.298.26-.618.637-.136.096-.616.141-1.44.141-.823 0-1.327-.07-1.509-.211-.32-.19-.48-.686-.48-1.489 0-.189.023-.46.069-.814.046-.354.068-.602.068-.744 0-.141.046-.319.138-.531.092-.213.138-.367.138-.461v-.07c.822-1.796 1.348-2.823 1.577-3.083.229-.26.411-.413.549-.46.411-.613.616-1.086.616-1.416 0-.236-.137-.379-.411-.426-.275-.047-.457-.117-.549-.212h-.412c-.138 0-.354.023-.652.071-.298.047-.515.071-.651.071-.549 0-.824-.401-.824-1.204 0-.283.023-.472.069-.566l.138.07.137.071c.137 0 .239-.06.309-.177.068-.119.126-.176.172-.176 1.6-.238 2.88-.355 3.84-.355.092 0 .23.023.413.071h1.234c.365-.047.662-.071.892-.071 2.56 0 4.869 1.179 6.927 3.542.274.425.48.756.616.992 1.281 1.51 2.24 2.608 2.881 3.295.64.683 1.143 1.144 1.509 1.38.594.661.914.992.96.992-.23 0 .205.07 1.303.211l.138.071v-.142c0-.236-.068-.531-.206-.884-.137-.354-.205-.627-.205-.815l.069-.283v-.213c0 .188-.412-1.205-1.235-4.179-.641-2.362-.959-4.392-.959-6.092 0-1.701.205-3.47.617-5.312 0-.096.205-.851.616-2.267.275-.944.412-1.7.412-2.268v-1.346c.046-.187.113-.436.205-.744.092-.306.138-.602.138-.885 0-4.864-.298-8.43-.892-10.696-.594-1.795-1.075-3.14-1.44-4.038l.069-.071h-.138c.046-.377.114-.566.206-.566h.068c1.371-1.605 2.172-2.645 2.4-3.117.045-.095.068-.306.068-.637 0-.33.023-.449.069-.355-.275.284-.503.567-.686.85-.686 1.087-1.189 1.747-1.508 1.984-.549.473-.847.707-.892.707-.778.332-3.429.496-7.955.496h-1.919c-.23 0-.561-.036-.994-.108-.435-.069-.766-.105-.993-.105-3.338 0-5.35-.047-6.035-.142h-.069l-.069-.071c-.229-.236-.342-.66-.342-1.275 0-.094.023-.141.067-.141.275 0 .413-.071.413-.211v-.142c.182-.047 1.027-.071 2.536-.071.412 0 .995.024 1.749.071.755.047 1.337.071 1.75.071.411 0 1.05-.047 1.92-.141.868-.094 1.531-.141 1.989-.141.366 0 .938.035 1.715.106.776.071 1.348.107 1.713.107 1.463 0 2.56-.071 3.292-.212.321-.187.525-.354.618-.497 1.051-.753 2.011-1.957 2.88-3.612.181-.377.309-.896.378-1.558.068-.662.102-1.228.102-1.701 0-.188-.023-.294-.068-.318-.046-.023-.068-.082-.068-.178 0-.094.045-.165.137-.211 0-.141-.047-.33-.137-.567-.093-.236-.138-.424-.138-.567v-.213l-.137-.141c0-.803.16-1.205.48-1.205.229 0 .617.096 1.166.284.181.141.297.26.343.354.275.236.433.355.48.355.503 1.322.754 2.407.754 3.258 0 .141.035.342.103.602.069.26.103.438.103.531 0 .424-.047 1.027-.138 1.806-.092.778-.137 1.381-.137 1.805 0 1.274-.4 2.35-1.2 3.223-.8.874-1.2 1.808-1.2 2.798 0 .237.205 1.205.616 2.904.275.898.503 1.558.686 1.983.138 2.267.207 4.087.207 5.455 0 .188.034.506.102.956.069.45.104.792.104 1.027 0 1.701-.069 3.093-.205 4.181-.23 1.606-.618 3.375-1.167 5.312l-.412 1.063c-.137.991-.205 1.912-.205 2.763 0 .283.035.72.103 1.309.069.591.103 1.027.103 1.311 0 .85.206 2.149.617 3.895l.823 2.125c.549 2.031.823 3.093.823 3.189v.071l.069.283v.284c0 1.18-.023 1.912-.069 2.196 0 .093-.023.141-.069.141-.549 0-.777.166-.685.495-.138.047-.435.071-.892.071-.274 0-.651-.036-1.132-.106-.48-.071-.835-.107-1.063-.107-.091 0-.16.071-.205.212-.23-.099-.412-.194-.549-.29zm-9.533-9.556c-.321 0-.526-.084-.617-.249-.093-.166-.161-.247-.205-.247h-.96c-.686 0-1.19.236-1.509.707-.504.707-.915 1.25-1.235 1.629-.594.993-.937 1.559-1.029 1.701-.412.802-.71 1.416-.892 1.841-.411.756-.641 1.157-.686 1.205-.047.284-.068.567-.068.851l-.138.07c.593-.236 1.052-.379 1.371-.424.594-.472 1.166-.828 1.714-1.063 3.154-2.739 4.732-4.509 4.732-5.313.001-.472-.16-.707-.479-.707z" id="Shape"/></g><g sketch:type="MSShapeGroup"><path d="M65.793 12.022c-.099-.624-.681-6.074-.071-10.389.554-.241 1.065-.426 1.618-.483.567-.099 1.079-.227 1.759-.099.923 0 2.456.78 3.264 2.086.725 1.136 1.008 2.712.752 4.684-.284 2.313-1.844 4.244-5.294 4.315-.908-.056-1.887.029-2.029-.113zm4.711-2.54c1.193-1.306 1.42-2.967.667-4.911-.553-1.434-2.2-2.414-4.088-1.874-.128 2.03-.056 5.337.114 7.877.895.014 2.242.056 3.306-1.093zM75.057 11.085c-.639-.724-.837-1.732-.809-2.754.056-.809.128-2.015.965-2.909 1.321-1.391 2.612-1.064 3.193-1.008.369.043.725.199 1.065.383 1.065.54 1.888 1.93 1.831 3.861-.113 1.632-.865 2.711-2.497 3.235-1.519.327-2.683.185-3.747-.809zm4.711-2.54c.029-1.022-.227-1.405-.327-1.66-.085-.242-.567-.966-1.561-1.036-1.277-.1-1.916.993-2.001 1.348-.171.455-.327 2.002.312 2.697.425.468 1.178.638 1.902.54.994-.299 1.646-.895 1.674-1.888zM82.79 11.752c.014-.355.639-.865 1.05-.54.341.965 1.987.965 2.555.44.242-.269.554-.752.455-1.576-.312.341-.766.597-1.646.71-1.576.043-1.944-.68-2.171-.923-.313-.369-.823-1.277-.78-2.867.071-.639.284-1.462 1.107-2.3.34-.298.837-.78 1.944-.809 1.277-.028 1.646.469 1.944.696.298.029 1.078.056 1.078.056.157.724.213 3.904.141 4.684-.028.681-.128 1.32-.298 1.973-.638 2.085-2.966 2.313-3.76 2.058-.853-.197-1.449-.992-1.619-1.602zm4.186-3.237c.029-1.305-.014-1.873-.043-2.37-.241-.639-1.461-.752-2.029-.511-.71.369-.923.965-.993 1.249-.284 1.163.212 1.774.511 1.987.44.312 1.661.34 2.554-.355zM97.149 11.852c-.184-.071-.199-1.533-.213-1.732-.028-3.931 0-7.891.171-8.885.284-.227.965-.298 1.476-.056.142.354 0 .468 0 5.79l.057 3.024 5.166.412c.056.127.141.993.014 1.504-.397.043-2.086.113-2.455.171h-2.484c-.313-.057-1.391-.171-1.732-.227zM105.492 11.085c-.639-.724-.837-1.732-.809-2.754.056-.809.128-2.015.965-2.909 1.321-1.391 2.612-1.064 3.193-1.008.369.043.725.199 1.065.383 1.065.54 1.888 1.93 1.831 3.861-.113 1.632-.865 2.711-2.497 3.235-1.519.327-2.683.185-3.747-.809zm4.711-2.54c.029-1.022-.227-1.405-.327-1.66-.085-.242-.567-.966-1.561-1.036-1.277-.1-1.916.993-2.001 1.348-.171.455-.327 2.002.312 2.697.425.468 1.178.638 1.902.54.994-.299 1.646-.895 1.674-1.888zM115.054 11.539c-.667-.923-1.873-3.463-2.412-6.061.141-.327.936-.738 1.263-.597.341.852 1.505 4.117 1.929 5.081.484-.795 1.761-4.457 2.215-5.124.354-.184 1.021.213 1.22.64.071.638-2.441 6.074-2.909 6.373-.269.184-.525.227-.709.199-.355-.127-.512-.383-.597-.511zM122.262 11.71c-.327-.171-.737-.497-1.092-.865-.313-.384-.568-.838-.682-1.334-.156-.511-.156-1.064-.156-1.647 0-.469.156-.881.312-1.277.184-.397.425-.767.724-1.079.482-.44.951-.795 1.504-.979.525-.185 1.108-.313 1.732-.228.397.043.767.157 1.121.327.298.185.61.441.923.738.213.269.979 1.051.894 2.2-.056.455-.525.682-.724.838-.652.455-1.363.753-2.115.908-.737.199-1.547.284-2.341.312.071.228.54.838 1.519 1.008.227.014.524.099 1.746-.355.113.014.369.269.61.865l-.141.312c-.327.269-1.178.525-1.618.61-1.477.128-1.789-.227-2.215-.354zm3.505-4.585c-.127-.269-.61-1.051-1.732-1.079-.284.028-.88.156-1.32.497-.88.681-.78 1.576-.78 1.817.767-.113 1.377-.241 1.987-.412.567-.128 1.149-.327 1.646-.639l.198-.184zM128.661 8.105c-.015-1.051-.043-3.804.056-4.045.412-.213 1.164-.227 1.448-.056l.071 1.264c.752-.838 2.555-.894 3.378-.554.128.298.014 1.051-.157 1.349-.468.099-1.902.171-2.242.582-.724.468-.838 1.065-.809 1.405-.029.681-.014 1.178.056 3.776-.284.199-1.178.298-1.348.171-.271-.768-.483-2.669-.455-3.89zM135.996 11.837c-.44-.228-1.008-.497-1.192-1.022.071-.355.312-.738.709-.865.611.54 1.93.738 2.441.695.425-.043.98-.269.767-.823-.455-.568-1.235-.667-1.874-.937-.638-.227-1.078-.54-1.617-1.036-.553-.61-.639-1.86.114-2.696.51-.455 1.774-1.121 3.264-.709.737.227 1.305.567 1.575.979.029.341-.355.852-.809.809-.298-.171-1.093-.497-1.689-.483-.511-.014-1.121.157-1.149.966.256.766 1.079.795 1.745 1.021.639.227 1.973.596 2.285 1.732.142.64.043 1.576-.88 2.129-.853.54-2.37.795-3.69.242zM149.091 11.823c-.028-.184-.156-.78 0-1.504l1.05-.157-.071-3.718.085-3.52c-.227-.056-1.007-.127-1.135-.199-.085-.269-.085-.98.014-1.434.369-.156.993-.284 1.447-.327.384.028 1.392 0 2.428.327l.014 1.277-1.192.355.015 3.236-.071 3.917c.241.057 1.108.256 1.306.313.099.397.113 1.334-.057 1.348-.184.199-.894.227-1.107.284h-1.646l-1.079-.199zM158.811 7.281c-.312-.44-.865-.567-1.461-.567-.795.056-1.036.298-1.32.823-.015 1.959-.128 4.045-.228 4.343-.354.269-1.078.227-1.263 0-.156-.895-.171-5.479.043-6.714.227-.241.837-.298 1.22-.099l.171.482c.284-.241.597-.426.937-.54.34-.141 2.072-.412 2.966.951.341.512.54 1.036.611 1.632.056.611.199 1.562-.384 4.343-.099.1-.979.157-1.376-.099-.114.056.809-3.436.085-4.557zM162.939 11.837c-.439-.228-1.008-.497-1.192-1.022.071-.355.312-.738.71-.865.61.54 1.929.738 2.441.695.425-.043.979-.269.766-.823-.455-.568-1.235-.667-1.873-.937-.639-.227-1.078-.54-1.617-1.036-.554-.61-.64-1.86.113-2.696.511-.455 1.774-1.121 3.264-.709.737.227 1.305.567 1.576.979.028.341-.356.852-.81.809-.298-.171-1.092-.497-1.689-.483-.511-.014-1.12.157-1.149.966.256.766 1.079.795 1.746 1.021.638.227 1.972.596 2.285 1.732.141.64.043 1.576-.88 2.129-.852.54-2.371.795-3.691.242zM171.012 6.912c-.397-.043-1.802-.071-2.384-.241-.071-.157-.128-.838.029-1.405.752-.142 2.015-.213 2.427-.213.043-.767.114-2.256.199-2.597.113-.085.439-.298.695-.269.156 0 .511 0 .667.157.071.552.156 2.143.156 2.711.412.028 1.604-.028 2.242.327.056.241.071.908-.085 1.277-.298.157-1.774.213-2.185.256.056 1.277-.114 4.301-.185 5.039-.284.199-.88.284-1.363 0-.128-.553-.156-2.015-.199-3.08l-.015-1.96zM176.12 9.254c.085-.34.213-1.604 1.292-2.157.567-.44 1.618-.809 2.781-.78-.865-.823-2.129-.582-3.193-.425-.185.085-.412.156-.625.284-.099-.199-.213-.397-.256-.625-.014-.199-.014-.426-.014-.652.455-.355.98-.568 1.604-.78.539-.171 1.149-.256 1.802-.213.384.043.767.213 1.093.425.34.171.653.455.908.795.468.582.752 1.193.852 1.945.128.725.171 1.505.128 2.271l-.029 1.051c0 .54.141.455.269.638.085.213.269.725-.184.98-.582.199-.937.256-1.193-.056l-.17-.369c-.34.312-1.675.78-3.094.567-1.519-.328-1.987-1.563-1.973-2.897zm4.726.71l-.1-1.845c-1.859-.44-2.668.34-2.853 1.036-.199 1.064.54 1.604 1.079 1.532 1.008-.114 1.561-.454 1.874-.724zM184.434 11.752c.015-.355.64-.865 1.05-.54.341.965 1.987.965 2.555.44.241-.269.553-.752.455-1.576-.312.341-.767.597-1.646.71-1.576.043-1.944-.68-2.172-.923-.312-.369-.823-1.277-.78-2.867.071-.639.284-1.462 1.107-2.3.34-.298.837-.78 1.944-.809 1.277-.028 1.646.469 1.944.696.298.029 1.078.056 1.078.056.157.724.213 3.904.142 4.684-.029.681-.128 1.32-.298 1.973-.639 2.085-2.966 2.313-3.761 2.058-.852-.197-1.449-.992-1.619-1.602zm4.187-3.237c.028-1.305-.015-1.873-.043-2.37-.241-.639-1.461-.752-2.029-.511-.71.369-.923.965-.993 1.249-.284 1.163.213 1.774.512 1.987.439.312 1.66.34 2.554-.355zM191.358 8.105c-.014-1.051-.043-3.804.057-4.045.412-.213 1.164-.227 1.448-.056l.071 1.264c.752-.838 2.555-.894 3.377-.554.128.298.015 1.051-.156 1.349-.468.099-1.902.171-2.242.582-.723.468-.837 1.065-.808 1.405-.029.681-.015 1.178.056 3.776-.284.199-1.178.298-1.348.171-.269-.768-.482-2.669-.455-3.89zM197.446 9.254c.084-.34.212-1.604 1.291-2.157.567-.44 1.617-.809 2.781-.78-.865-.823-2.129-.582-3.194-.425-.184.085-.412.156-.624.284-.099-.199-.213-.397-.255-.625-.015-.199-.015-.426-.015-.652.455-.355.979-.568 1.604-.78.54-.171 1.149-.256 1.803-.213.383.043.767.213 1.093.425.341.171.652.455.908.795.469.582.752 1.193.852 1.945.127.725.17 1.505.127 2.271l-.028 1.051c0 .54.141.455.269.638.085.213.269.725-.184.98-.582.199-.937.256-1.192-.056l-.171-.369c-.341.312-1.675.78-3.094.567-1.519-.328-1.987-1.563-1.972-2.897zm4.725.71l-.099-1.845c-1.859-.44-2.668.34-2.852 1.036-.199 1.064.539 1.604 1.078 1.532 1.008-.114 1.561-.454 1.873-.724zM211.691 8.53c.085-1.817-.808-2.853-1.929-1.874.156.753.284 1.633.241 2.526.015 1.391-.269 2.413-.397 2.909l-1.193-.157.141-1.149s.355-3.619-.284-4.045c-1.021-.468-1.348.199-1.49.525l-.028 4.613c-.284.184-1.079.184-1.235-.029-.128-.866-.1-1.745-.114-2.981 0-.894-.085-3.492 0-3.605.099-.029.681-.213 1.136-.043.141.141.056.383.128.383.354-.738 1.959-.908 2.526-.255.227-.256.467-.469.752-.597.88-.312 2.001.043 2.525.923.213.327.625 1.476.625 3.222 0 1.263-.199 2.81-.312 3.18-.085.071-.937.213-1.236.014.001-.001.2-2.499.142-3.563zM221.04 1.944l.113-.312c.141-.128.312-.256.482-.312.171-.043.525-.114.725.085.567 2.484 2.015 6.359 2.611 7.636.78-1.334 2.838-6.941 3.193-7.764.269-.029.937.029 1.334.412-.44 2.896-2.512 8.119-3.676 9.936-.355.511-1.263.582-1.405.184-.737-1.193-2.881-4.967-3.377-9.865zM230.404 3.122c-.028-.114-.056-.313.1-.795.141-.156.17-.668.922-.795 1.022-.199 1.462.426 1.533.853.284 1.192-.737 1.575-1.604 1.547-.256.029-.795-.127-.951-.808zm.567 8.842c-.028-.269-.056-.553-.099-.88-.057-.256-.057-.582-.085-.838v-2.611c.028-.511.028-1.008.085-1.519.043-.497.099-.936.284-1.348l.88-.029.269.099c.141.582.213 1.192.227 1.874.029.638.029 1.263.029 1.916-.029.581-.043 1.149-.085 1.732-.029.568-.171 1.149-.269 1.689l-.865.029-.37-.114zM236.165 11.71c-.327-.171-.738-.497-1.093-.865-.312-.384-.567-.838-.68-1.334-.157-.511-.157-1.064-.157-1.647 0-.469.157-.881.312-1.277.184-.397.425-.767.724-1.079.483-.44.951-.795 1.504-.979.524-.185 1.107-.313 1.732-.228.397.043.767.157 1.121.327.298.185.61.441.923.738.213.269.98 1.051.894 2.2-.057.455-.525.682-.724.838-.653.455-1.363.753-2.115.908-.737.199-1.547.284-2.342.312.071.228.54.838 1.519 1.008.227.014.525.099 1.745-.355.114.014.369.269.611.865l-.141.312c-.327.269-1.178.525-1.618.61-1.477.128-1.789-.227-2.215-.354zm3.505-4.585c-.128-.269-.611-1.051-1.732-1.079-.284.028-.88.156-1.32.497-.88.681-.78 1.576-.78 1.817.766-.113 1.376-.241 1.987-.412.568-.128 1.15-.327 1.646-.639l.199-.184zM242.38 5.55c.028-.128.298-.227.455-.256.156-.028.482.015.595.057.369 1.249.908 3.733 1.178 4.627.241-.852 1.021-3.633 1.476-4.755.184-.199.71-.142.908-.029l1.263 4.442c.227-.724.539-2.909 1.149-4.442.298-.114.88.141 1.108.355-.1 1.973-1.136 5.309-1.661 6.188-.227.327-.596.269-.724.269-.44-.029-.611-.468-.709-.61-.284-.511-.853-2.016-.965-2.484-.71 2.498-1.476 3.065-1.632 3.094-.141.071-.525.157-.823 0-.625-.695-1.605-3.775-1.618-6.457zM253.432 11.71c-.327-.171-.737-.497-1.092-.865-.313-.384-.568-.838-.682-1.334-.156-.511-.156-1.064-.156-1.647 0-.469.156-.881.312-1.277.184-.397.425-.767.724-1.079.482-.44.951-.795 1.504-.979.525-.185 1.108-.313 1.732-.228.397.043.767.157 1.121.327.298.185.61.441.923.738.213.269.979 1.051.894 2.2-.056.455-.525.682-.724.838-.652.455-1.363.753-2.115.908-.737.199-1.547.284-2.341.312.071.228.54.838 1.519 1.008.227.014.524.099 1.746-.355.113.014.369.269.61.865l-.141.312c-.327.269-1.178.525-1.618.61-1.476.128-1.789-.227-2.215-.354zm3.505-4.585c-.127-.269-.61-1.051-1.732-1.079-.284.028-.88.156-1.32.497-.88.681-.78 1.576-.78 1.817.767-.113 1.377-.241 1.987-.412.567-.128 1.149-.327 1.646-.639l.198-.184zM259.831 8.105c-.015-1.051-.043-3.804.056-4.045.412-.213 1.164-.227 1.448-.056l.071 1.264c.752-.838 2.555-.894 3.378-.554.128.298.014 1.051-.157 1.349-.468.099-1.902.171-2.242.582-.724.468-.838 1.065-.809 1.405-.029.681-.014 1.178.056 3.776-.284.199-1.178.298-1.348.171-.271-.768-.483-2.669-.455-3.89z"/></g></g></svg>