<svg xmlns="http://www.w3.org/2000/svg" width="320" height="70"><g fill="#fff"><path d="M31.72 57.77c-.92-.19-1.83-.34-2.72-.44-.9-.1-1.75-.29-2.58-.58v-.65c.44-.92.65-1.89.65-2.899l-.15-.29c.34-.87.48-1.84.44-2.9l-.15-1.16.15-.869c.1-1.69-.11-3.221-.62-4.57-.51-1.35-.91-2.811-1.2-4.35l-.36-.801-.29-.07-1.6-1.6-2.18-.51c-1.21.29-2.27.9-3.19 1.811-1.31 2.129-2.06 4.43-2.25 6.899s-.51 4.89-.94 7.26l.07.8c0 1.211-.24 2.351-.73 3.41l.15.36-.87.87h-2.9c-1.31-.1-2.52-.391-3.63-.87v-.511l-.65-.219c-.39-2.23-.92-4.431-1.6-6.611-.68-2.18-.99-4.4-.94-6.68l.07-.36-.07-.73.07-.94c0-2.37-.16-4.73-.47-7.08-.31-2.35-.66-4.66-1.05-6.93l.22-2.18c-.34-2.08-.75-4.14-1.23-6.17-.49-2.03-.88-4.04-1.17-6.02l.15-.29h.14l.44.29v.15l.36.15.29.51.51.36 2.03 1.81 1.6 1.74h.51c1.4-.44 2.81-.85 4.21-1.23l.44-.29.15-.65h.29l.07-.44h.29l.15-.8h.15l1.52-2.69.73-.15.07.65-.07 1.02c.15 1.16.32 2.27.51 3.34h.07c.19 1.26.47 2.49.83 3.7s.64 2.44.83 3.7l.29.07.94-.22.15-.44c.87-.34 1.74-.58 2.61-.73.87-.15 1.79-.24 2.76-.29 1.98-.05 3.79.36 5.41 1.23s3.25 1.62 4.9 2.25c.39.58.87.97 1.45 1.16l.58-.22.87-.8h.15v-.22c.73-.1 1.35-.46 1.89-1.09.44-.77.77-1.67 1.02-2.69.24-1.02.36-2.03.36-3.05l-.73-1.16c-.53-.44-1.21-.6-2.03-.51l-.51.22c-.24.48-.34 1.09-.29 1.81.53.29 1.06.58 1.6.87l.44.94-1.09 1.16h-.44c-.92-.15-1.72-.44-2.4-.87-.63-.63-.9-1.38-.8-2.25l.15-.65-.15-.58c.1-.92.29-1.79.58-2.61h.22l.07-.73h.29l.15-.29h.15l.15-.44c1.26-.68 2.66-.99 4.21-.94 1.26.19 2.4.65 3.41 1.38.73 1.4 1.23 2.88 1.52 4.43.29 1.55.39 3.15.29 4.79-.15.97-.44 1.86-.87 2.69-.44.82-.87 1.62-1.31 2.4l-1.45.94-.22.36-.22.29-.29.36-.44.29-.15.94c.39.87.68 1.81.87 2.83s.27 2.06.22 3.12c-.48 3.82-1.43 7.49-2.83 11s-3.24 6.709-5.52 9.619l-.51.331zm-25.4-33.97c.44-.29.6-.73.51-1.31-.19-.44-.51-.77-.94-1.02h-.66c-.48.24-.82.58-1.02 1.02v.65c.19.44.53.77 1.02 1.02h.65l.44-.36zm6.53-.65c.39-.34.56-.77.51-1.31-.19-.48-.51-.85-.94-1.09h-.65c-.48.24-.85.61-1.09 1.09v.58c.24.48.61.82 1.09 1.02h.65l.43-.29z"/><path d="M53.16 58v-.21c-.88-.2-1.74-.521-2.6-.979v-.131l-.21-.039v-.08l-.6-.431-.08-.17-.17-.13-.26-.21v-.08h-.17l-.13-.21h-.13l-.26-.25v-.08h-.21v-.13c-.43-.2-.79-.45-1.11-.771l-.08-.209-.13-.041-.13-.47-.17-.08-.09-.17-.09-.04-.34-.55h-.09l-.08-.21-.26-.471h-.13c-.14-1.219-.25-2.449-.32-3.699s-.11-2.51-.11-3.79c.08-.62.22-1.229.4-1.83.18-.601.52-1.16 1-1.7l.38-.25.38-.811h.21l.47-.939.21-.04c.34-1.159.55-2.38.62-3.64.07-1.26.19-2.52.36-3.77h.13c.17-.51.33-1.04.47-1.57h.13l.04-.34.26-.13.51.38.04.17.85.43.08.13.17.17.38.34.13.43h.09l.09.25.26.3.47.77h.09l.6 1.11h.13l1.15 2.43c.99.2 1.97.34 2.94.42l.43-.08v.131c.68.06 1.34.199 1.98.42.64.229 1.25.51 1.85.85.51-.311 1.03-.59 1.55-.83.53-.24 1.06-.47 1.6-.7l.25-.25c.68-.31 1.38-.52 2.11-.62.72-.1 1.44-.189 2.15-.28l.21.89-.38.94-1.23 1.399-.3.261h-.09c-.31.479-.63.959-.96 1.42-.33.47-.59.959-.79 1.47l-.25.3c-.11.34-.24.67-.38.98l.17.85-.17 1.15.08.64c-.17.71-.28 1.42-.32 2.149-.04.721-.26 1.381-.66 1.98l-.47.13c-1.82-.51-3.66-1.05-5.53-1.62s-3.77-.98-5.7-1.23l-.04-.209-.47-.041-.43.131c-.23.74-.46 1.46-.7 2.17-.24.71-.42 1.449-.53 2.21.23.479.53.91.89 1.28l.08.13.68.59v.13l.21.04.04.17.13.09v.171l.17.129.25.131.34.3v.13c.54.17 1.06.35 1.57.529.51.181 1.06.281 1.66.281.65-.201 1.35-.351 2.09-.451.74-.1 1.39-.359 1.96-.789l.13-.681-.04-.25-.55-.079-.51.51h-.68l-.45-.151-.17-.471.47-1.229h.13l.13-.38c.48-.4 1.04-.6 1.66-.6l1.11.34.26.47h.21l.3.681h.17l.13.719c-.08.621-.23 1.19-.43 1.701l-.38.34v.13c-.48.34-1.01.62-1.57.85l-.26.38c-.51.17-1.01.4-1.49.68-.48.281-1.02.41-1.62.381l-.43-.08-1.57.17h-.35c-.71.199-1.42.34-2.13.42l-.09-.13-.12.128zm.42-8.04l-.34-.21c-.31-.23-.43-.51-.34-.85l.34-.68.13-.131.43-.13c.37.03.67.181.89.47.14.23.2.471.17.721 0 .31-.14.539-.43.68l-.51.13-.09-.08-.04.08-.09-.08-.12.08zm7.02-4.34v-.42l-.13-.64h-.13c-.4-.91-.94-1.75-1.62-2.511-.57-.42-1.21-.64-1.91-.64l-.6.13-.47-.04-.64.21-.08.13c-.4.141-.71.37-.94.68l-.6 1.15c1.19.37 2.35.77 3.49 1.189 1.15.421 2.36.682 3.63.762zm-2.76 5.069v-.089c-.23 0-.45-.129-.68-.379-.17-.171-.24-.41-.21-.721.48-.4 1.06-.55 1.74-.471l.21.131.13.6-.08.131-.34.299-.13.301-.64.198z"/><path d="M77.78 57.92c-.62-.17-1.28-.279-1.96-.34-.77-3.971-1.37-8-1.81-12.08-.44-4.08-.89-8.16-1.34-12.21l.04-1.49-.17-2.81.09-.34-.17-1.4.09-.21-.13-1.11.04-1.92-.04-1.53.04-.17h.34l.34.09c.68 0 1.34-.04 1.98-.11.64-.07 1.3-.15 1.98-.23l.3.04.21-.04 1.91.13.94-.13.13.04.08-.04 1.45.26.08.34c-.28.68-.43 1.43-.43 2.26l.13.51-.13.81.09.34c0 .96-.09 1.93-.26 2.89l.04 1.32-.21 2.81.08.08-.08 1.23.43.38c.82.17 1.67.25 2.53.25.87 0 1.69.04 2.49.13l.68-.04c.96.08 1.94.17 2.94.25v.13c.6.08 1.18.16 1.77.211.58.059 1.14.18 1.68.379l.08.43-.25.041v.25l-.64.3-.21.26h-.13v.13l-.43.26v.17c-.65.57-1.33 1.061-2.04 1.49l-.13.26-.64.34c-.4.791-.64 1.691-.72 2.681l.04 1.229c-.17.82-.28 1.69-.34 2.601.68.25 1.33.601 1.94 1.04s1.23.84 1.85 1.21l.21.3h.13l.72.6.38.131v.38l-1.66.89-.46.407c-1.79.51-3.58.971-5.38 1.359-1.8.4-3.62.721-5.47.98l-.22 1.661c.17.37.24.779.21 1.23-.9.52-1.91.75-3.01.69zm5.95-8.72c.26-.2.37-.511.34-.94l-.68-.55h-.38c-.31.11-.54.33-.68.64v.381c.14.31.37.549.68.72h.38l.34-.251zm.13-7.36c.28-.199.4-.48.34-.85-.11-.311-.33-.54-.64-.68h-.43c-.31.14-.54.369-.68.68v.38c.14.31.37.55.68.72h.43l.3-.25z"/><path d="M105.71 57.88c-.79-.11-1.6-.22-2.4-.319-.8-.101-1.6-.301-2.36-.621l-.08-.209h-.17v-.08c-.23-.03-.41-.141-.55-.34l-.08-.17h-.17l-.13-.17h-.13v-.091l-.26-.21v-.25h-.21l-.13-.13-.08-.3-.26-.26-.17-.13-.04-.3h-.17v-.21l-.21-.08-.08-.21-.17-.079v-.171h-.13l-.08-.43-.21-.04-.43-.51-.08-.42h-.08c-.28-.601-.54-1.211-.77-1.851s-.34-1.31-.34-2.021l.09-.719-.09-.17c.11-1.301.31-2.541.57-3.721.27-1.18.73-2.32 1.38-3.43l.64-.641v-.209h.17l.04-.211h.17l.04-.209.21-.041.08-.17.6-.64.04-.21h.13l.13-.17.21-.21.34-.171.04-.17c1.05-.479 2.11-.85 3.19-1.109 1.08-.25 2.21-.34 3.4-.25 1.02-.09 1.96.029 2.81.34l.3-.04c.77.2 1.46.511 2.09.94l.08.21.17.079.08.261.17.3.17.13.21.13.47.51v.131l.34.17.13.34h.21c.31.43.54.88.68 1.359l.13.08.08.211c.17.08.24.24.21.47l.17.04.04.34.21.08c.28.65.51 1.34.68 2.061.17.719.31 1.449.43 2.189l.17.08.13 1.359c.06.94-.07 1.76-.38 2.471h-.13c-.23.6-.45 1.189-.68 1.77s-.54 1.131-.94 1.641l-.21.25-.26.25h-.08l-.26.43-.85.55-.77.94-1.02.64c-.31.45-.71.81-1.19 1.06-.77.08-1.56.131-2.38.15-.81-.009-1.62.041-2.42.131zm3.66-6l1.15-1.11c.48-.74.72-1.569.72-2.51l-.08-.17.08-.21c-.23-.819-.44-1.659-.64-2.51.2-.54.38-1.08.53-1.62.16-.54.19-1.13.11-1.79v-.34h-.38l-.55.47-.17.21-.34.3h-.08l-.09.25h-.13l-.13.211-.72.64-.43.81-1.4.211-1.53-.131-.68.09-.09-.09-.21-.17-.51-1.061-.21-.299-.17-.131-.3-.51-.38-.34-.08-.21-.89-.47v.55l.23 2.13c.07.68.16 1.359.28 2.04-.2.479-.33.989-.4 1.53-.07.539-.09 1.09-.06 1.66l.3.719h.08v.131h.09c.17.4.45.75.85 1.061.57.369 1.18.649 1.83.85.65.199 1.35.3 2.09.3.82-.041 1.6-.211 2.31-.491zm-5.23-3.659c-.28-.08-.47-.25-.55-.511v-.431c.09-.279.27-.469.55-.549h.38c.28.08.47.27.55.549v.431c-.08.261-.27.431-.55.511h-.38zm4.25.039c-.25-.06-.43-.24-.51-.55v-.34c.08-.28.26-.47.51-.55h.38c.28.09.47.27.55.55v.34c-.08.31-.27.5-.55.55h-.38z"/><path d="M127.97 58c-1.33-.57-2.65-1.18-3.94-1.85-1.29-.67-2.55-1.44-3.77-2.32l-.17-.21-.55-.38v-.64c.31-.82.6-1.619.85-2.379l.17-.08.04-.211.34-.039c1.13.26 2.26.569 3.38.939s2.29.641 3.51.811l.13-.17c.28-.061.54-.23.77-.511l.3-.3h.13v-.381l.21-.129c.2-.43.27-.881.21-1.36l-.51-.851c.31-.399.48-.859.51-1.399l-.3-.13c-.6.311-1.22.619-1.87.939-.65-.279-1.28-.58-1.87-.89l-.08-.17-.55-.13v-.51l.3-1.91h-.17c-.57.31-1.06.74-1.49 1.279h-.09l-.08.211-.21.039-.55-.43-1.32-.811-.04-.129-.17-.131v-.129c.43-.82.77-1.681 1.04-2.57.27-.891.62-1.771 1.04-2.62l.51-.64c.17-.17.38-.311.64-.431 1.05-.37 2.12-.7 3.21-1 1.09-.3 2.23-.479 3.43-.53 1.33.28 2.6.711 3.79 1.28 1.19.57 2.34 1.19 3.45 1.87l.04.17.26.13.08.47-1.06 2.25-.3.301h-.21c-1.28-.141-2.5-.4-3.68-.791-1.18-.379-2.42-.629-3.72-.75l-.6.211-.09.17-.26.34v.17c.62.65 1.32 1.25 2.08 1.79h.09c.43.45.88.81 1.36 1.06l.08.131.34.209.04.17.43.171v.17l.38.13v.13h.17l.77.64h.09v.131l.55.3c.28.37.49.771.64 1.19l-.13 2.51.08.55-.13.43.04.42c.06.601-.1 1.11-.47 1.53l-.81.89-.94.89-1.15 1.021c-.65.399-1.33.771-2.04 1.11-.7.339-1.42.589-2.16.759zm-4.21-9.141c-.23-.08-.38-.27-.47-.549v-.3c.09-.279.24-.449.47-.51h.38c.26.061.43.23.51.51v.301c-.08.279-.26.469-.51.549h-.38zm3.27 1.141c-.28-.061-.45-.23-.51-.51v-.301c.06-.279.23-.449.51-.51h.38c.26.061.43.23.51.51v.301c-.09.279-.26.449-.51.51h-.38z"/><path d="M150.8 57.79l-.77-.21c-.31-1.02-.57-2.061-.79-3.13-.21-1.06-.4-2.13-.57-3.21l.04-.131c-.2-1.219-.4-2.42-.62-3.59-.21-1.18-.45-2.35-.7-3.51-.31-.199-.68-.25-1.11-.17l-.13.04c-.94-.2-1.87-.409-2.79-.62-.92-.21-1.82-.41-2.7-.58 0-.91-.11-1.77-.34-2.6l.04-.721c-.11-.369-.17-.81-.17-1.319l.04-.13c1.16-.11 2.33-.36 3.51-.74 1.18-.38 2.39-.65 3.64-.79l.04-.51c-.11-.43-.17-.92-.17-1.49h-.13l-.13-1.87.09-.34-.09-.43.09-1.45-.09-.38.09-.26c-.17-.82-.23-1.7-.17-2.64l.21-.94.26-.13c.31.45.6.9.87 1.34.27.44.58.84.91 1.21l.47.98.13.09c.43.06.89.16 1.4.3l.25-.08.94.21c.57-.14 1.15-.27 1.74-.38l.21-.26.13-.25h.08c.28-.54.58-1.06.89-1.57l.38-.3c.06-.4.27-.74.64-1.02l.38-.04c0 .68.04 1.35.13 2-.09.82-.19 1.62-.3 2.38v3.23l-.04.89.04.38-.04.601.04.81c1.25.261 2.48.46 3.7.62 1.22.16 2.41.43 3.57.83l.08 1.02-.681 3.49c-1.25.141-2.489.311-3.72.49-1.23.189-2.4.55-3.51 1.08-.2.99-.31 2.039-.32 3.13-.01 1.09-.09 2.18-.23 3.25h-.13l-.09 1.409.101.221-.04.55h-.08v.171l.08.85c-.11.4-.2.779-.26 1.15l.13.34c-.03.85-.13 1.689-.3 2.51l-.6.08-.77-.08-.64.209-.85-.129-1.27.139zm-.68-23.4c.2-.14.28-.37.26-.68-.09-.28-.27-.47-.55-.55h-.38c-.23.08-.41.27-.55.55v.34c.14.23.33.43.55.6h.38l.29-.26zm4.51.25c.23-.2.33-.47.3-.81-.11-.26-.31-.44-.6-.55h-.34c-.28.11-.47.3-.55.55v.38c.09.28.27.48.55.6h.34l.3-.17z"/><path d="M179.779 58c-.709-.17-1.439-.3-2.189-.4-.75-.1-1.48-.25-2.189-.449v-.131c-.801-.279-1.601-.6-2.43-.939l-.551-1.15h-.13c-.54-.88-.89-1.84-1.06-2.89h-.13c-.31-.54-.52-1.101-.64-1.681-.11-.58-.271-1.139-.47-1.68l-.211-.039-.039-.381h-.17l-.041-.17-1.149-.77-.04-.26h-.25l-.47-.511v-.17l-.21-.04-.301-.26v-.17l-1.399-1.02-.09-.301-.17-.17-.431-.55v-.168l.131-.3 2.17-.641.34.04.55-.04.3.04c.57-.14 1.15-.229 1.74-.28.6-.039 1.18-.18 1.75-.399l.04-.17.26-.261 1.11-.81.13-.21.681-.85 1.02-.551.38-.379c.14-.57.29-1.131.45-1.681s.25-1.16.279-1.81l.211-.04c.14-.51.25-1.05.34-1.62h.13c.11-.91.409-1.73.89-2.47l.641-.38.379.17.131.77c.199.14.26.33.17.55h.13l.17.55.08.08.09.55.25.08.04.51.17.08.08.21.17.04.09.47.17.09.041.3.17.04.08.261.129.08c.371.539.65 1.119.851 1.739l.13.09.25.261v.17l1.109.34v.13c.621.17 1.25.38 1.871.64v.17l.47.17v-2.81c.569-.229 1.159-.431 1.79-.62.619-.18 1.3-.279 2.039-.279l.591.129c.37.65.6 1.391.68 2.211h.17l.171.72c.109.2.159.409.129.64h.17l.131.6h.129c.08.511.211.99.381 1.451h.04l.17.639.13.041.09.64h.131c.43.79.719 1.649.889 2.55h.08l.08.641h.17l.131.68h.17c.14.62.33 1.189.55 1.699l.17.131c.2.65.3 1.38.3 2.17h.131l.129.939h.131l.08.681h.209c.341.85.541 1.729.601 2.64l-.17.551c-.94.399-1.931.699-2.979.889-1.051.201-2.07.471-3.061.811l-1.115-.173-.091-.3h-.13l-.13-.601h-.13l-.08-.47h-.17l-.131-.55h-.129l-.041-.38h-.209l-.08-.341-.17-.079-.041-.171-.129-.039-.17-.211h-.261l-.68.641c-.761.28-1.46.67-2.08 1.15l-.17.209c-.649.48-1.351.921-2.08 1.32v.17c-.739.392-1.519.602-2.34.652zm2.431-5.27l1.021-.851h.379l.041-.26h.17l.08-.341h.17c.619-.819.88-1.829.77-3.02-.029-.43-.13-.82-.3-1.189l-.17-.17-1.229-.771v-.128c-.881-.37-1.791-.641-2.721-.811-.48.201-.939.351-1.359.471l-.301.17-.039.25-.941.6-.079.17-.171.211-.34.209v.13h-.09l-.17.979.17 2.72h.09l.08.771.25.04.041.3.129.04.08.34.211.21v.13c.68.28 1.359.42 2.039.42.729-.209 1.45-.42 2.189-.62zm-3.79-2.77c-.311-.08-.51-.28-.6-.59v-.38c.08-.311.279-.52.6-.641h.43c.311.11.51.33.601.641v.38c-.08.31-.28.51-.601.59h-.43zm2.471-2.21c-.291-.09-.48-.279-.601-.6v-.47c.11-.279.31-.47.601-.55h.43c.34.08.55.271.64.55v.471c-.08.31-.3.51-.64.6h-.43z"/><path d="M208.55 69.15c-.88-.08-1.69-.4-2.42-.94v-.08h-.13l-.34-.34h-.08v-.08l-.42-.13v-.13l-.51-.431c-.25-.279-.44-.569-.551-.85l-.129-.21h-.131l-.13-.25-.13-.04c-.34-.57-.52-1.189-.53-1.87-.01-.68-.05-1.38-.11-2.079l.08-.301-.129-.51c.139-.46.31-.91.51-1.36.199-.45.479-.85.85-1.19.37-.279.77-.489 1.21-.619.44-.131.92-.221 1.42-.28.851.06 1.66.3 2.431.72l.039.25h.09c.311.541.471 1.131.471 1.791.029.709-.16 1.359-.551 1.959l-.64.301-.6-.431-.12-1.239.08-.511-.34-.21v-.09l-1.021-.21-.6.13c-.11.74-.25 1.46-.42 2.17.229.54.5 1.08.81 1.62l.381.25v.21c.739.37 1.549.51 2.43.42.789-.14 1.57-.3 2.34-.47l.09-.13h.21l.21-.301.51-.43.08-.21h.17l.25-.43c.28-.2.5-.47.641-.81l.08-.17.17-.091c.43-.77.84-1.55 1.229-2.34.4-.79.57-1.649.511-2.55-.091-.54-.181-1.051-.281-1.53-.1-.479-.189-.96-.279-1.45h-.08c-.08-.6-.24-1.09-.47-1.49-.08-.34-.16-.699-.21-1.06h-.25l-.43.3-.431.381-.17.42c-.51.279-1.04.529-1.58.72l-.04.08c-.68.26-1.34.55-1.98.87-.64.33-1.33.59-2.06.789l-.81-.42-.641-.43v-.13l-.17-.04v-.13h-.21l-.59-.51v-.258h-.129l-.13-.129-.261-.131-.129-.17-.25-.13-.301-.68-.13-.21-.21-.09-.85-.641v-.13c-.311-.2-.68-.28-1.11-.25l-.3.04c-.62-.109-1.25-.27-1.87-.47l-.64.09-.34-.13c-.511.109-1.08.17-1.701.17l-.34-.17v-.26l.17-.08c.311-.37.601-.771.851-1.19l.13-.04.301-.6c.25-.25.5-.57.719-.94l1.4-1.399h.17l.34-.471.811-.47c0-.59.109-1.11.32-1.55.209-.44.47-.86.789-1.26l.601-.51.55-.261.21-1.399c-.08-.48-.17-.94-.25-1.36l.08-.771-.04-.13.04-.34-.04-.47c.141-.45.21-.92.21-1.4s.03-.96.091-1.45h.17l1.06.64.21.3.3.08v.17l.771.47c.34.511.67 1.06.979 1.64s.649 1.11 1.021 1.601l.6.55 1.4.04c.57 0 1.08-.14 1.529-.43l.09-.47c-.14-.59-.289-1.19-.449-1.791-.16-.6-.291-1.189-.4-1.79l.85-.3v.04c.851-.26 1.73-.44 2.641-.55.91-.11 1.82-.24 2.72-.38l.851.13v.09h.09l.47-.09v.09l.17.04c.229 1.22.47 2.42.72 3.6.26 1.18.381 2.42.381 3.72l-.065.242c.109 1.079.21 2.159.279 3.229.07 1.08.16 2.16.281 3.23l-.131.17.17.04.131 1.19.26.08c.09.819.199 1.619.34 2.399s.21 1.61.21 2.489l-.04 1.361c.141.619.18 1.26.13 1.92-.11.479-.3.949-.55 1.399l.04.17-.21.13c-.141.51-.35.96-.62 1.36-.271.399-.56.81-.87 1.229l-.21.08-.38.551-.76.81c-.26.54-.551 1.05-.87 1.55-.33.5-.63 1-.91 1.51l-.21.073v.13h-.13c-.08.25-.229.479-.421.681-1.079.619-2.189 1.129-3.319 1.529-1.14.4-2.36.67-3.66.81zm.38-20.929l.17-.041v-.13h.08l.17-.38.43-.55c.23-.431.4-.88.511-1.36s.16-.99.13-1.529c-.109-.311-.311-.58-.6-.811-.6-.57-1.301-.88-2.131-.939-.59 0-1.129.109-1.619.34-.4.539-.78 1.08-1.15 1.619-.37.541-.51 1.16-.43 1.871l.38 1.06.17.04.09.3.13.04.471.51c.449.4 1.01.54 1.66.42l1.538-.46zm-3.23-1.362c-.261-.109-.431-.299-.511-.549v-.3c.08-.25.25-.43.511-.51h.34c.26.08.41.25.47.51v.301c-.06.26-.21.439-.47.549h-.34zm1.45-2.259c-.26-.06-.41-.209-.471-.47v-.38c.061-.23.211-.38.471-.471h.34c.25.091.43.24.51.471v.38c-.08.25-.25.41-.51.47h-.34z"/><path d="M227.27 57.58l-.85-.13c-.26-.681-.449-1.39-.57-2.13-.129-.74-.22-1.5-.279-2.301l.039-.209c-.139-.771-.239-1.561-.299-2.381l.039-.47c-.109-.681-.24-1.36-.38-2.04l.08-.13c-.14-.88-.26-1.761-.36-2.64-.1-.881-.229-1.74-.399-2.59l.08-.17-.13-2.641v-4.17c.029-.88.109-1.75.229-2.62.13-.86.261-1.74.41-2.62h.25l.08.08.13.3.08.09c.26.25.41.58.471.98l.209.04c.28.51.521 1.05.721 1.62.57.23 1.16.36 1.789.4.621.04 1.23.09 1.83.15l.771-1.06.38-.17.08-.21.551-.38.079-.13.341-.38c.34-.31.709-.47 1.109-.47l.38.25v.21c-.399.96-.729 1.96-1 3s-.45 2.109-.53 3.21l.42.13.26-.13.041-.17c.539-.28 1.109-.5 1.699-.64v-.158l.34-.041.08-.17c.74-.229 1.521-.35 2.34-.359.82-.01 1.631-.109 2.431-.28l1.49.511v.039c.51.17.989.4 1.45.7.459.3.92.57 1.399.83l.17.261.3.34v.51h.211c.109.31.18.609.209.89h.09l.25 1.74c-.109.79-.299 1.5-.549 2.13l-.211.21v.13l-.26.17h-.13l-.09.211-.47.34c-.541.369-1.16.539-1.87.51l-.201-.072-.43.08c-.311-.17-.61-.34-.891-.51v-.131l-.26-.039v-.17h-.17l-.09-.211h-.131l-.028-.259-.17-.039c-.17-.451-.25-.94-.25-1.451.141-.279.23-.64.25-1.06l.17-.08.17-.25c.17-.14.38-.2.641-.17v.08h.25v.13l.17.04v.17h.129v.38l-.17.68c0 .311.08.601.25.851h.211v.17l1.02.08.98-.55.209-.381.17-.08.171-1.149c-.11-.43-.25-.81-.421-1.149l-.17-.041v-.141h-.17l-.21-.3v-.09c-.791-.34-1.65-.51-2.551-.51l-.08.039-.08-.039c-.789 0-1.459.199-2 .6l-.039.13c-.771.399-1.5.82-2.211 1.28l-.039.13-1.19.979v.17l-.47.261c-.34.6-.74 1.19-1.19 1.79-.46.6-.851 1.21-1.19 1.83h-.08c-.139.65-.33 1.3-.549 1.959h-.131c-.06.541-.13 1.091-.209 1.66l-.261.131-.26 1.49c-.08.51-.13 1.039-.13 1.569h.09v.04c-.11.65-.23 1.32-.34 2-.11.68-.24 1.32-.381 1.92-.819.17-1.66.25-2.51.25h-.16v-.009zm-.17-19.83c.23-.2.33-.45.301-.77-.11-.28-.311-.48-.59-.601h-.381c-.26.11-.42.31-.51.601v.34c.09.289.25.479.51.6h.381l.289-.17zm4 .38c.2-.17.28-.43.25-.771-.109-.26-.3-.43-.55-.51h-.34c-.28.08-.5.25-.64.51v.381c.14.25.35.449.64.6h.34l.3-.21z"/><path d="M262 58c-.71-.17-1.439-.3-2.189-.4-.75-.1-1.48-.25-2.19-.449v-.131c-.79-.279-1.601-.6-2.431-.939l-.549-1.15h-.131c-.539-.88-.89-1.84-1.06-2.89h-.13c-.311-.54-.521-1.101-.641-1.681-.109-.58-.27-1.139-.47-1.68l-.209-.039-.04-.381h-.17l-.04-.17-1.15-.77-.039-.26h-.25l-.471-.511v-.17l-.21-.04-.3-.26v-.17l-1.4-1.02-.08-.301-.17-.17-.43-.55v-.168l.13-.3 2.17-.641.341.04.549-.04.301.04c.57-.14 1.15-.229 1.74-.28.6-.039 1.18-.18 1.75-.399l.039-.17.25-.261 1.11-.81.13-.21.68-.85 1.021-.551.38-.379c.141-.57.29-1.131.45-1.681s.25-1.16.28-1.81l.21-.04c.14-.51.26-1.05.34-1.62h.13c.109-.91.41-1.73.891-2.47l.64-.38.38.17.13.77c.2.14.261.33.17.55h.13l.17.55.08.08.08.55.26.08.041.51.17.08.08.21.17.04.08.47.17.09.039.3.17.04.08.261.131.08c.369.539.649 1.119.85 1.739l.13.09.261.261v.17l1.109.34v.13c.62.17 1.25.38 1.87.64v.17l.47.17v-2.81c.57-.229 1.16-.431 1.79-.62.62-.18 1.3-.279 2.04-.279l.59.129c.37.65.6 1.391.68 2.211h.17l.17.72c.111.2.16.409.131.64h.17l.13.6h.126c.09.511.21.99.381 1.451h.039l.17.639.131.041.08.64h.129c.431.79.721 1.649.891 2.55h.08l.08.641h.17l.13.68h.17c.14.62.33 1.189.55 1.699l.17.131c.2.65.301 1.38.301 2.17h.129l.131.939h.13l.08.681h.21c.34.85.54 1.729.59 2.64l-.17.551c-.939.399-1.93.699-2.98.889-1.05.201-2.07.471-3.06.811l-1.112-.173-.09-.3h-.13l-.13-.601h-.13l-.08-.47h-.17l-.13-.55h-.131l-.039-.38h-.211l-.09-.341-.17-.079-.039-.171-.131-.039-.17-.211h-.25l-.68.641c-.77.28-1.461.67-2.08 1.15l-.17.209c-.65.48-1.35.921-2.08 1.32v.17c-.719.392-1.499.602-2.319.652zm2.42-5.27l1.02-.851h.381l.039-.26h.171l.09-.341h.17c.62-.819.88-1.829.771-3.02-.03-.43-.131-.82-.301-1.189l-.17-.17-1.23-.771v-.128c-.879-.37-1.789-.641-2.719-.811-.48.201-.94.351-1.36.471l-.3.17-.041.25-.941.6-.08.17-.17.211-.34.209v.13h-.09l-.17.979.17 2.72h.09l.08.771.25.04.04.3.13.04.09.35.21.211v.129c.681.281 1.36.42 2.04.42.71-.219 1.439-.43 2.17-.63zm-3.779-2.77c-.311-.08-.511-.28-.601-.59v-.38c.08-.311.28-.52.601-.641h.43c.31.11.51.33.59.641v.38c-.08.31-.28.51-.59.59h-.43zm2.468-2.21c-.279-.09-.479-.279-.6-.6v-.47c.11-.279.311-.47.6-.55h.431c.34.08.55.271.64.55v.471c-.09.31-.3.51-.64.6h-.431z"/><path d="M315.49 58.641l-.94-.17-.25.039-.21-.039-1.58.039-.3-.13c-.229-1.53-.47-3.08-.72-4.64-.26-1.561-.431-3.15-.51-4.77h-.171l-1.449 1.489-.811.851c-.74.939-1.41 1.91-2.02 2.939-.61 1.02-1.07 2.1-1.38 3.23l-.681.09c-.71-.2-1.489-.34-2.34-.43l-.939.129-.261-.129-2.81.209-.17-.08-.21-.25-1.23-2.47c-.54-.68-1.04-1.399-1.49-2.149-.449-.75-.979-1.48-1.58-2.19v-.13l-.209-.13-.34-.681-.211-.039-1.149-1.74-.47-.04c-.371 1.39-.641 2.84-.811 4.34s-.33 3.01-.47 4.51l.079 1.06-.079.381c-.681.34-1.431.529-2.261.58-.819.039-1.64.06-2.47.06l-1.19-.25c-.77-3.69-1.549-7.43-2.359-11.21-.811-3.779-1.4-7.58-1.77-11.38l.08-.3.43-.08.77.08 2.211-.3 2.979.21 1.149-.21c.371 0 .69.11.98.34-.061 1.16.2 2.21.77 3.15l.43.08c.91-.939 2-1.38 3.281-1.32.879.031 1.709.16 2.51.381.789.229 1.52.64 2.17 1.229.31.31.649.61 1.02.89v.09h.17c.57.541.98 1.121 1.23 1.74h.17l.26.34h.13l.21.211.381.34 1.189-1.36h.17v-.151l1.53-1.36h.08l.51-.72.47-.471h.13l.08-.25.341-.09.039-.21c.94-.37 1.9-.649 2.891-.85s2.06-.3 3.189-.3c.79.09 1.591.24 2.381.47l.079.21c.71.29 1.381.65 2 1.09.62.439 1.25.9 1.87 1.38l.34.38c.4.65.73 1.33 1 2.041.271.709.471 1.449.62 2.209l-.13.34.13.51c-.26.711-.409 1.431-.47 2.171-.06.739-.1 1.46-.13 2.17l.04.89c-.23 1.33-.46 2.68-.68 4.04-.23 1.36-.601 2.64-1.11 3.83-.638.261-1.358.35-2.128.261zm-20.09 3.75c-.371-.061-.61-.271-.721-.641v-.51c.11-.37.36-.6.721-.68h.43c.37.08.609.31.72.68v.51c-.11.37-.35.58-.72.641h-.43zm11.96.548c-.37-.109-.601-.359-.681-.719v-.47c.08-.37.311-.609.681-.721h.47c.37.111.61.351.72.721v.471c-.109.369-.359.609-.72.719h-.47z"/></g><g fill="#fff"><path d="M65.521 10.975c-.66-.31-.956-.548-1.293-.956-.407-.533-.576-1.223-.745-1.883-.127-.633-.127-1.349-.127-2.136.028-.787.099-1.728.337-2.333.183-.829 1.167-2.291 2.839-2.81 1.096-.337 2.375-.155 2.993.056.436.154 1.054.45 1.406.899.394.352-.338 1.223-.759 1.125-.281-.155-.97-.38-1.321-.464-1.575-.45-2.558.407-2.797.689-.787.885-.688 1.812-.815 2.417-.127 1.292-.168 2.909.956 3.709 1.18.857 2.782.127 3.204-.07.421-.099.73-.394 1.109-.379.521.14.941.829.647 1.208-.688.478-1.349.899-2.08 1.096-1.138.309-2.669.253-3.554-.168z"/><path d="M72.727 8.684c.084-.337.211-1.588 1.278-2.136.562-.436 1.603-.801 2.755-.773-.857-.815-2.108-.576-3.163-.422-.183.084-.407.155-.617.281-.099-.197-.211-.393-.253-.619-.014-.197-.014-.422-.014-.646.45-.351.969-.562 1.588-.773.534-.168 1.138-.252 1.785-.21.379.042.759.21 1.083.421.336.168.646.45.899.787.463.577.744 1.181.843 1.926.126.717.168 1.489.126 2.248l-.028 1.04c0 .534.141.45.268.633.084.211.267.716-.183.969-.576.197-.928.253-1.182-.057l-.168-.365c-.337.309-1.658.773-3.064.562-1.504-.322-1.967-1.546-1.953-2.866zm4.68.702l-.098-1.826c-1.841-.436-2.643.337-2.825 1.026-.196 1.054.535 1.587 1.069 1.517.997-.112 1.545-.449 1.854-.717z"/><path d="M83.152 6.365c-.393-.042-1.784-.07-2.36-.239-.07-.155-.127-.829.028-1.391.745-.141 1.995-.211 2.403-.211.042-.759.112-2.234.196-2.571.113-.085.436-.295.689-.268.154 0 .506 0 .66.154.071.548.155 2.123.155 2.685.407.028 1.588-.028 2.22.323.057.24.071.9-.084 1.265-.295.155-1.757.211-2.164.253.056 1.264-.112 4.258-.183 4.988-.281.198-.871.281-1.349 0-.126-.547-.155-1.995-.197-3.049l-.014-1.939z"/><path d="M92.509 11.255c-.183-.07-.197-1.518-.211-1.714-.028-3.893 0-7.814.168-8.797.281-.225.956-.295 1.461-.056.141.351 0 .463 0 5.733l.056 2.994 5.117.407c.056.126.141.984.014 1.49-.394.042-2.065.112-2.432.168h-2.459l-1.714-.225z"/><path d="M101.052 10.497c-.633-.717-.829-1.715-.801-2.727.056-.801.126-1.995.956-2.881 1.308-1.377 2.586-1.054 3.163-.998.365.042.716.197 1.053.38 1.055.534 1.87 1.911 1.813 3.822-.113 1.616-.857 2.684-2.474 3.204-1.504.325-2.657.183-3.71-.8zm4.666-2.516c.027-1.012-.225-1.391-.323-1.644-.084-.24-.563-.956-1.546-1.026-1.265-.099-1.897.984-1.982 1.335-.168.45-.323 1.981.31 2.67.421.464 1.167.632 1.883.534.982-.295 1.629-.885 1.658-1.869z"/><path d="M110.803 10.946c-.661-.913-1.856-3.429-2.389-6.001.14-.323.927-.73 1.25-.59.338.843 1.49 4.076 1.912 5.031.479-.787 1.743-4.413 2.193-5.073.351-.183 1.011.21 1.208.632.07.633-2.417 6.015-2.881 6.31-.266.183-.52.225-.703.196-.352-.125-.506-.379-.59-.505z"/><path d="M118.221 11.115c-.323-.168-.731-.491-1.082-.857-.309-.379-.562-.829-.675-1.321-.155-.505-.155-1.054-.155-1.629 0-.464.155-.872.309-1.266.183-.393.421-.759.717-1.068.478-.435.942-.787 1.49-.969.521-.183 1.097-.31 1.714-.225.394.042.759.155 1.11.324.295.183.604.436.913.73.211.268.97 1.04.886 2.178-.056.45-.521.675-.717.83-.646.449-1.349.745-2.094.899-.731.196-1.531.281-2.318.309.07.225.534.83 1.503.998.225.014.521.098 1.729-.352.112.015.365.268.604.858l-.141.309c-.323.267-1.167.52-1.602.604-1.461.126-1.77-.225-2.191-.352zm3.471-4.539c-.127-.267-.605-1.04-1.715-1.068-.281.028-.871.154-1.307.492-.872.675-.772 1.56-.772 1.799.758-.112 1.363-.239 1.967-.407.562-.126 1.139-.324 1.63-.632l.197-.184z"/><path d="M124.837 7.545c-.014-1.04-.042-3.767.056-4.005.408-.21 1.152-.225 1.434-.056l.071 1.25c.744-.83 2.529-.886 3.344-.548.126.295.015 1.04-.154 1.335-.465.099-1.884.169-2.221.576-.717.464-.829 1.054-.801 1.392-.028.674-.014 1.167.057 3.738-.281.196-1.167.295-1.336.168-.267-.758-.477-2.641-.45-3.85z"/><path d="M132.383 11.242c-.436-.225-.999-.492-1.181-1.012.071-.351.31-.73.703-.856.604.534 1.911.73 2.417.688.421-.042.969-.267.759-.815-.45-.562-1.223-.66-1.855-.927-.632-.225-1.067-.534-1.601-1.026-.549-.604-.633-1.841.111-2.67.506-.45 1.756-1.11 3.233-.703.73.225 1.293.562 1.56.97.028.337-.352.843-.801.801-.296-.169-1.083-.492-1.672-.478-.506-.014-1.11.155-1.139.956.253.759 1.068.787 1.729 1.011.633.226 1.953.59 2.263 1.715.141.633.042 1.56-.871 2.108-.845.533-2.348.786-3.655.238z"/><path d="M142.259 11.228c-.028-.183-.154-.773 0-1.49l1.04-.154-.07-3.683.084-3.485c-.226-.056-.998-.126-1.125-.197-.084-.267-.084-.97.014-1.419.365-.154.984-.281 1.434-.323.379.028 1.377 0 2.403.323l.014 1.265-1.181.351.015 3.205-.071 3.878c.239.056 1.097.253 1.293.309.099.394.112 1.321-.056 1.334-.183.197-.885.225-1.096.281h-1.63l-1.068-.195z"/><path d="M152.165 6.73c-.309-.435-.857-.562-1.447-.562-.787.056-1.026.295-1.307.815-.015 1.939-.127 4.005-.226 4.3-.351.268-1.068.225-1.25 0-.154-.886-.169-5.424.042-6.647.225-.239.829-.295 1.208-.098l.169.478c.281-.239.59-.422.927-.534.338-.141 2.052-.408 2.937.941.338.506.535 1.026.605 1.616.056.605.196 1.547-.38 4.301-.098.099-.97.155-1.363-.098-.111.055.802-3.401.085-4.512z"/><path d="M156.534 11.242c-.436-.225-.999-.492-1.181-1.012.07-.351.309-.73.703-.856.604.534 1.911.73 2.417.688.421-.042.969-.267.759-.815-.45-.562-1.223-.66-1.855-.927-.633-.225-1.067-.534-1.602-1.026-.549-.604-.632-1.841.112-2.67.505-.45 1.756-1.11 3.232-.703.73.225 1.293.562 1.56.97.028.337-.352.843-.801.801-.295-.169-1.082-.492-1.672-.478-.507-.014-1.11.155-1.139.956.253.759 1.068.787 1.729 1.011.632.226 1.953.59 2.262 1.715.141.633.043 1.56-.871 2.108-.842.533-2.346.786-3.653.238z"/><path d="M164.811 6.365c-.393-.042-1.785-.07-2.362-.239-.069-.155-.126-.829.028-1.391.746-.141 1.997-.211 2.404-.211.042-.759.112-2.234.196-2.571.113-.085.437-.295.688-.268.155 0 .507 0 .662.154.069.548.153 2.123.153 2.685.408.028 1.589-.028 2.221.323.057.24.07.9-.084 1.265-.295.155-1.757.211-2.164.253.056 1.264-.113 4.258-.183 4.988-.281.198-.872.281-1.35 0-.126-.547-.155-1.995-.196-3.049l-.013-1.939z"/><path d="M170.149 8.684c.084-.337.211-1.588 1.278-2.136.562-.436 1.603-.801 2.755-.773-.856-.815-2.107-.576-3.162-.422-.183.084-.407.155-.618.281-.1-.197-.211-.393-.253-.619-.014-.197-.014-.422-.014-.646.449-.351.969-.562 1.588-.773.533-.168 1.138-.252 1.784-.21.379.042.76.21 1.082.421.337.168.646.45.899.787.465.577.744 1.181.844 1.926.126.717.169 1.489.126 2.248l-.027 1.04c0 .534.141.45.267.633.085.211.268.716-.183.969-.576.197-.928.253-1.182-.057l-.167-.365c-.338.309-1.659.773-3.065.562-1.502-.322-1.965-1.546-1.952-2.866zm4.68.702l-.099-1.826c-1.841-.436-2.642.337-2.825 1.026-.196 1.054.534 1.587 1.069 1.517.998-.112 1.546-.449 1.855-.717z"/><path d="M178.663 11.157c.015-.351.633-.857 1.04-.534.338.956 1.968.956 2.529.436.239-.267.549-.745.45-1.56-.31.337-.759.59-1.629.703-1.562.042-1.926-.674-2.15-.914-.311-.365-.815-1.264-.773-2.838.07-.633.281-1.448 1.096-2.277.337-.296.829-.773 1.926-.801 1.265-.028 1.63.464 1.925.689.295.028 1.068.056 1.068.056.155.716.211 3.864.141 4.637-.028.675-.126 1.307-.296 1.954-.632 2.066-2.936 2.291-3.724 2.038-.844-.198-1.434-.984-1.603-1.589zm4.147-3.204c.027-1.293-.015-1.855-.042-2.347-.24-.633-1.448-.745-2.01-.505-.703.365-.914.955-.984 1.237-.281 1.152.211 1.756.506 1.967.435.309 1.644.337 2.53-.352z"/><path d="M185.801 7.545c-.015-1.04-.043-3.767.056-4.005.407-.21 1.152-.225 1.434-.056l.07 1.25c.744-.83 2.529-.886 3.345-.548.127.295.014 1.04-.154 1.335-.464.099-1.884.169-2.221.576-.718.464-.829 1.054-.801 1.392-.028.674-.015 1.167.057 3.738-.281.196-1.167.295-1.336.168-.269-.758-.479-2.641-.45-3.85z"/><path d="M192.109 8.684c.084-.337.21-1.588 1.278-2.136.562-.436 1.603-.801 2.755-.773-.857-.815-2.108-.576-3.162-.422-.183.084-.407.155-.618.281-.099-.197-.211-.393-.253-.619-.015-.197-.015-.422-.015-.646.45-.351.97-.562 1.589-.773.533-.168 1.138-.252 1.784-.21.38.042.76.21 1.082.421.338.168.647.45.899.787.464.577.745 1.181.844 1.926.126.717.169 1.489.126 2.248l-.028 1.04c0 .534.141.45.268.633.084.211.266.716-.183.969-.577.197-.929.253-1.181-.057l-.168-.365c-.338.309-1.659.773-3.064.562-1.502-.322-1.967-1.546-1.953-2.866zm4.68.702l-.099-1.826c-1.841-.436-2.642.337-2.824 1.026-.197 1.054.533 1.587 1.067 1.517 1-.112 1.546-.449 1.856-.717z"/><path d="M206.498 7.967c.083-1.799-.802-2.825-1.912-1.855.154.745.281 1.616.239 2.502.015 1.377-.268 2.389-.393 2.881l-1.182-.155.141-1.138s.352-3.583-.281-4.005c-1.012-.464-1.335.197-1.476.52l-.027 4.567c-.28.183-1.068.183-1.223-.028-.127-.857-.1-1.728-.112-2.951 0-.886-.085-3.458 0-3.57.098-.028.674-.211 1.124-.042.141.141.057.38.127.38.352-.731 1.939-.899 2.502-.253.224-.253.463-.463.744-.59.87-.31 1.98.042 2.501.914.21.323.618 1.461.618 3.19 0 1.25-.197 2.782-.309 3.147-.085.071-.928.211-1.224.014.001 0 .199-2.474.143-3.528z"/><path d="M211.54 1.446l.112-.309c.14-.127.309-.253.478-.309.169-.042.52-.113.717.084.562 2.459 1.996 6.296 2.586 7.561.772-1.321 2.81-6.873 3.162-7.687.267-.028.928.028 1.32.407-.436 2.867-2.487 8.039-3.64 9.838-.352.505-1.25.576-1.392.182-.729-1.18-2.852-4.918-3.343-9.767z"/><path d="M221.094 2.613c-.028-.113-.057-.309.099-.787.141-.155.167-.66.912-.787 1.013-.197 1.447.421 1.519.844.281 1.18-.73 1.56-1.589 1.532-.253.027-.787-.128-.941-.802zm.562 8.755l-.099-.871c-.057-.253-.057-.577-.084-.83v-2.585c.027-.506.027-.998.084-1.503.042-.492.099-.927.281-1.335l.871-.028.267.099c.141.576.211 1.18.225 1.855.028.632.028 1.25.028 1.897-.028.576-.042 1.138-.084 1.715-.028.562-.169 1.138-.268 1.671l-.856.029-.365-.114z"/><path d="M227.079 11.115c-.323-.168-.731-.491-1.082-.857-.31-.379-.562-.829-.675-1.321-.154-.505-.154-1.054-.154-1.629 0-.464.154-.872.309-1.266.184-.393.421-.759.717-1.068.479-.435.941-.787 1.489-.969.521-.183 1.098-.31 1.715-.225.394.042.76.155 1.111.324.295.183.604.436.912.73.211.268.97 1.04.886 2.178-.056.45-.521.675-.717.83-.646.449-1.349.745-2.094.899-.731.196-1.532.281-2.318.309.07.225.533.83 1.503.998.226.014.52.098 1.729-.352.111.015.365.268.604.858l-.141.309c-.322.267-1.167.52-1.603.604-1.459.126-1.769-.225-2.191-.352zm3.472-4.539c-.127-.267-.604-1.04-1.715-1.068-.28.028-.872.154-1.307.492-.873.675-.773 1.56-.773 1.799.758-.112 1.363-.239 1.967-.407.562-.126 1.14-.324 1.632-.632l.196-.184z"/><path d="M233.514 5.016c.028-.126.295-.225.449-.253.154-.028.478.014.591.056.365 1.237.899 3.697 1.166 4.582.239-.843 1.012-3.598 1.462-4.708.183-.197.702-.14.898-.028l1.251 4.399c.225-.717.535-2.881 1.139-4.399.295-.112.871.141 1.096.352-.099 1.954-1.124 5.256-1.644 6.127-.226.324-.591.268-.718.268-.436-.028-.604-.464-.701-.604-.282-.506-.844-1.996-.957-2.459-.701 2.473-1.461 3.036-1.615 3.063-.141.07-.521.155-.815 0-.619-.69-1.589-3.74-1.602-6.396z"/><path d="M244.739 11.115c-.322-.168-.73-.491-1.081-.857-.311-.379-.562-.829-.675-1.321-.154-.505-.154-1.054-.154-1.629 0-.464.154-.872.309-1.266.183-.393.421-.759.717-1.068.478-.435.941-.787 1.489-.969.521-.183 1.097-.31 1.715-.225.394.042.76.155 1.109.324.296.183.605.436.914.73.211.268.97 1.04.885 2.178-.056.45-.52.675-.716.83-.646.449-1.349.745-2.094.899-.73.196-1.533.281-2.319.309.071.225.533.83 1.504.998.225.014.52.098 1.729-.352.112.015.365.268.604.858l-.141.309c-.323.267-1.167.52-1.603.604-1.46.126-1.769-.225-2.192-.352zm3.472-4.539c-.126-.267-.604-1.04-1.715-1.068-.28.028-.872.154-1.307.492-.872.675-.772 1.56-.772 1.799.759-.112 1.362-.239 1.967-.407.562-.126 1.139-.324 1.631-.632l.196-.184z"/><path d="M251.355 7.545c-.013-1.04-.041-3.767.057-4.005.408-.21 1.153-.225 1.435-.056l.07 1.25c.744-.83 2.529-.886 3.344-.548.127.295.016 1.04-.154 1.335-.464.099-1.883.169-2.221.576-.717.464-.828 1.054-.8 1.392-.028.674-.016 1.167.056 3.738-.282.196-1.167.295-1.336.168-.267-.758-.477-2.641-.451-3.85z"/></g></svg>