<svg xmlns="http://www.w3.org/2000/svg" width="320" height="70"><g fill="#fff"><path d="M77.87 8.48c.04.08.07.17.07.34 0 .14-.03.28-.11.42-.08.18-.17.25-.27.25-.13 0-.45-.1-.97-.29-.49 1.56-1.28 2.27-2.41 2.27-.59 0-1.09-.18-1.54-.59-.45-.39-.65-.9-.65-1.47 0-.63.24-1.15.73-1.57.46-.41 1.01-.6 1.63-.6.22 0 .46.03.8.11-.03-.69-.11-1.15-.29-1.46-.24-.41-.64-.63-1.21-.63-.59 0-1.25.22-1.96.67-.41.24-.95.65-1.71 1.26-.11 1.81-.27 3.27-.42 4.37-.07.04-.2.08-.38.08-.28 0-.56-.08-.8-.21-.07-.42-.11-1.14-.11-2.05 0-.29 0-.63.03-1.16-.54.78-.9 1.28-1.24 1.69-.1.01-.27-.06-.5-.18-.24-.14-.35-.27-.36-.36.41-1.25 1.15-2.76 2.29-4.53.06-.56.11-1.09.15-1.68-1.35.06-2.03.03-2.19-.13-.07-.06-.11-.25-.11-.58 0-.36.04-.55.13-.59.25-.15 1.04-.29 2.41-.39.08-.5.15-.79.2-.86.1-.25.31-.36.62-.36.46 0 .64.11.64.36l-.04.81c.32.01.56.01.73.04l.01.03c.17.01.28.1.42.24.1.2.15.34.15.48 0 .11-.2.58-.63 1.43-.35.71-.59 1.21-.88 1.71 1.61-1.16 2.79-1.65 3.8-1.65.48 0 .86.08 1.19.22.7.32 1.16.8 1.42 1.47.21.52.32 1.19.31 2.09v.39c.33.2.7.39 1.05.61zm-2.89.28c-.24-.13-.45-.17-.63-.17-.22 0-.43.07-.63.22-.21.14-.32.35-.32.57 0 .39.22.62.62.62.27 0 .51-.15.66-.43.07-.11.16-.37.3-.81z"/><path d="M87.94 8.75c.41.21.73.55 1 1-.21.41-.67.74-1.43 1.04-.69.25-1.29.38-1.89.38-1.21 0-2.2-.41-2.94-1.23-.15-.15-.21-.24-.21-.28v-.1c0-.08.14-.22.43-.46.31-.22.51-.34.62-.34h.06c.43.35 1.14.52 2.1.52.86 0 1.65-.17 2.26-.53zm-.84-5.03c-.14-.03-.34-.13-.71-.28-.24-.11-.48-.2-.66-.24-.65-.13-1.39-.25-2.3-.34l-.39-.07c-.15-.11-.22-.38-.22-.9 0-.28.03-.41.13-.43.34-.14.9-.22 1.67-.22.9 0 1.78.18 2.72.52 1.12.45 1.68.98 1.68 1.65 0 .6-.29 1.08-.86 1.46-.21-.08-.43-.2-.69-.32-.25-.1-.43-.25-.55-.42.06-.15.1-.26.18-.41z"/><path d="M95.06 11.59l-.1-.7c.84-.53 1.53-1.18 2.13-1.98.53-.79 1.04-1.58 1.39-2.42l.43-1.23h-.94l-2.23.1c-.14-.1-.24-.25-.24-.45-.06-.2-.06-.39-.06-.6.59-.24 1.23-.39 1.94-.49l2.03-.14.39-2.13c.1-.06.2-.1.35-.15h.39l.25.15c.1.24.14.43.14.69v.8l-.04.53h.69l1.19-.04c.39.04.8.04 1.23.04.41.06.74.11 1.09.25v.55l-.15.45-4.15.35v.1c.24.78.65 1.53 1.18 2.17.55.64 1.15 1.29 1.79 1.88.34.31.74.6 1.08.84.35.25.74.5 1.15.74v.21l-.31.78h-.24c-.7-.2-1.35-.49-1.99-.94-.63-.39-1.23-.9-1.78-1.43-.34-.41-.69-.8-.98-1.25-.31-.39-.55-.84-.7-1.29h-.1c-.25.64-.59 1.29-.94 1.89-.39.65-.9 1.18-1.44 1.72-.34.29-.69.55-1.04.8-.35.24-.74.39-1.14.55l-.27-.35z"/><path d="M109.27 10.26c-.1-.15-.15-.31-.15-.5l.84-.69v-.15c-.24-.14-.43-.35-.59-.59-.2-.25-.35-.45-.49-.7-.1-.24-.15-.49-.21-.74-.04-.24-.04-.55 0-.79l.25-1.09-.65-.1-.14-.74.1-.25 1.18-.2c.11-.35.25-.69.41-1.04.14-.35.34-.64.55-.99l.39-.04.49.29.06.25-.45 1.49c.64 0 1.23 0 1.88.04.6.06 1.19.15 1.78.25v.59l-.14.39-.84.1c-.06.74-.2 1.39-.45 1.99-.29.65-.65 1.23-1.04 1.84l.94.79v.15l-.55.59h-.2l-1.19-.59c-.25.2-.45.34-.69.49-.25.15-.55.29-.8.39-.15-.14-.25-.3-.29-.44zm1.68-2.48c.29-.45.59-.84.84-1.29.25-.45.49-.9.64-1.39l-2.07-.06-.31 1.54c.06.25.1.45.25.65.15.25.29.45.49.59l.15.06v-.1zm4.81 3.81c-.2-.1-.39-.25-.55-.45-.15-.14-.25-.35-.29-.55-.1-.2-.15-.39-.15-.65.1-.14.25-.2.39-.2h.45l.2.29.6.55h.29c.15-.04.25-.14.35-.29.1-.1.2-.2.24-.35.06-.14.1-.34.15-.55.04-.2.04-.39.04-.59l-.14-.59-.25-.06-.04.06h-2.64c-.04-.06-.14-.06-.2-.06-.1 0-.14-.04-.2-.14l-.04-.8.04-.1c.45-.15.94-.25 1.39-.29.45-.06.94-.06 1.44-.06v-.11c-.11-.25-.15-.5-.21-.74-.04-.25-.1-.55-.04-.85l.2-.49c.25-.25.55-.49.84-.74.25-.25.49-.55.64-.84l.06-.35-.11-.24c-.2-.1-.39-.15-.63-.2-.25-.06-.5-.06-.74-.06l-1.6.2-.39-.39v-.37l.2-.25c.41-.14.8-.24 1.25-.34.44-.1.88-.15 1.33-.1.35.04.64.1 1 .2.29.1.55.29.79.59.15.15.2.35.25.55.04.25.04.45.04.7-.04.24-.1.43-.2.63-.1.21-.24.41-.43.55l-1 .8-.06.79.31 1.05 1.88.1.1.84-.06.14-1.49.25v.2l.06 1.25c-.06.34-.15.63-.29.88-.15.29-.31.6-.55.84-.25.2-.5.35-.74.45-.25.15-.55.2-.9.15-.24-.06-.45-.16-.59-.26z"/><path d="M132.37 5.41c-.44.27-1.09.56-2.08.88.14.52.21.95.28 1.32-.08.1-.28.18-.58.27-.27.07-.5.1-.69.1-.17-.22-.38-.62-.63-1.22-1.86.5-2.97.74-3.48.74-.11 0-.21-.13-.32-.42-.11-.28-.17-.49-.17-.66 0-.1.01-.17.07-.21.28-.22 1.33-.6 3.25-1.18l-.42-1.42c-1.84.39-2.9.59-3.27.59-.11 0-.2-.14-.31-.43-.1-.28-.13-.49-.13-.66 0-.13.01-.17.06-.21.14-.13.63-.31 1.49-.59.67-.21 1.22-.38 1.7-.49-.13-.62-.18-1.01-.18-1.26 0-.36.29-.55.95-.55.21 0 .34.04.39.14.22.53.38.97.49 1.32 1.18-.15 1.79-.24 1.95-.24.24.34.36.77.35 1.25-.17.11-.43.22-.8.35l-.91.29c.15.53.31.97.43 1.46l1.16-.28c.43-.13.8-.2 1.07-.21.22.24.34.69.33 1.32zm-7.85 4.66c0-.18.06-.42.18-.72.13-.35.24-.49.35-.49.52 0 1.28.18 2.26.56.94.36 1.63.71 2.05 1.04-.04.31-.21.76-.5 1.26h-.11c-.37 0-1.15-.24-2.37-.67-1.26-.47-1.86-.8-1.86-.98z"/><path d="M142.75 11.69l.04-.15.49-.14c.15-.06.31-.1.45-.25.1-.14.15-.35.2-.55.06-.14.06-.34.06-.55h-.8l-.04.06h-4.75l-.25-.25-.06-.59.1-.2c.55-.15 1.15-.25 1.74-.29.6-.06 1.19-.06 1.78-.11h2.23v-.54h-.2l-.49.1h-2.13c-.45-.06-.84-.1-1.23-.25-.41-.1-.74-.29-1.05-.65-.24-.35-.39-.69-.49-1.09-.1-.34-.15-.74-.1-1.19.06-.34.15-.63.29-.98.15-.29.35-.6.6-.84.39-.25.84-.41 1.28-.55.45-.15.9-.2 1.35-.25v-.2h-2.48l-.84.06-.35-.15-.14-.69.1-.21c.59-.14 1.23-.29 1.88-.34.64-.06 1.29-.1 1.93-.1v-.45c0-.15.04-.25.2-.29l.73-.06c.15.06.2.15.2.29 0 .15 0 .29.06.45.64 0 1.29 0 1.93.06.65.04 1.18.14 1.72.29v.49l-.14.39-3.38.21-.04.24c.55.06 1.04.1 1.58.15.49.1.94.35 1.33.74.25.35.41.74.5 1.19.1.43.14.88.1 1.33-.06.29-.1.59-.2.84-.15.25-.31.49-.5.74l-.79.39-.06.31.15.59c.24.06.45.06.69.06.25 0 .45.04.6.2v.65l-.1.24-1.05.1c-.04.45-.1.84-.14 1.19-.1.39-.29.74-.64 1.04-.25.15-.49.31-.74.35-.25.06-.55.1-.84.06l-.1-.06-.06.06-.13-.9zm-1.05-8.02h-.59c-.25.04-.45.04-.7.1-.24.04-.43.14-.59.29l-.2.39c-.06.15-.1.29-.1.45h.1c.35-.06.69-.1 1.04-.15.35-.04.7-.04 1.04-.1v-.98zm.16 2.98l-.06-.55-2.13-.06v.16l.41.45.84.14c.29.06.59.06.94.06v-.2zm-.94 5.39c-.15-.1-.29-.25-.45-.41l-.29-.53.49-.45c.15-.15.29-.2.49-.2.21.14.41.29.55.43.15.15.31.35.35.6l-.69.79c-.16-.03-.31-.13-.45-.23zm4.3-6.19h-.1l-2.07.2-.06.74h.41c.29-.04.59-.14.88-.2.25-.04.49-.1.74-.25l.2-.49zm-.33-1.78c-.25-.1-.55-.2-.85-.25-.29-.04-.59-.04-.88-.1v.9l1.98.04.06-.04-.31-.55z"/><path d="M155.38 11.69l-.1-.49v-2.09l-2.13-.1c-.06.5-.21.94-.41 1.39-.2.45-.49.84-.84 1.19l-.2.04-.58-.63v-.21c.34-.69.55-1.43.59-2.27.06-.84.06-1.64.06-2.48l-.06-.04v-3.28l.25-.98c.84-.2 1.72-.35 2.68-.45.94-.06 1.88-.1 2.82-.1.59.04 1.19.1 1.74.25.55.14.98.39 1.43.84.25.34.45.69.5 1.04.04.39.1.78.1 1.23v2.23c-.06.84-.1 1.64-.15 2.43-.06.84-.25 1.58-.59 2.28-.15.1-.25.2-.41.25-.14.04-.34.1-.55.04-.2-.04-.39-.1-.53-.25-.15-.1-.31-.2-.45-.34l-.06-.31.5-.53h.29l.24.1.11-1.58h-.21c-.43.1-.84.14-1.28.2-.45.04-.95.04-1.39.04l-.31 2.64-.59.1-.47-.16zm.24-9.01h-.14l-2.48.1v.49l.15 1.29h.29l2.03-.25.15-1.63zm-.29 3.87l.06-.6h-2.09v.7l.06.94h1.98v-1.04zm4.31-2.64l-.11-.39c-.04-.15-.1-.25-.24-.35-.35-.2-.74-.35-1.14-.39-.45-.06-.86-.06-1.29-.06v.1l.1 1.54 2.62.2.06-.04v-.61zm.05 1.88h-.39l-2.33.15-.1 1.64 2.82.1v-1.89z"/><path d="M167.66 11.3c-.03-.18-.15-.77 0-1.49l1.04-.15-.07-3.67.08-3.48c-.22-.06-1-.13-1.12-.2-.08-.27-.08-.97.01-1.42.36-.15.98-.28 1.43-.32.38.03 1.37 0 2.4.32l.02 1.26-1.18.35.01 3.2-.07 3.87c.24.06 1.09.25 1.29.31.1.39.11 1.32-.05 1.33-.18.2-.88.22-1.09.28h-1.63l-1.07-.19z"/><path d="M180.06 6.81c-.31-.43-.86-.56-1.44-.56-.78.06-1.02.29-1.3.81-.01 1.93-.13 3.99-.22 4.29-.35.27-1.06.22-1.25 0-.15-.88-.17-5.41.04-6.63.22-.24.83-.29 1.21-.1l.17.48c.28-.24.59-.42.92-.53.34-.14 2.05-.41 2.93.94.34.5.53 1.02.6 1.61.06.6.2 1.54-.38 4.29-.1.1-.97.15-1.36-.1-.11.06.8-3.39.08-4.5z"/><path d="M186.94 11.31c-.43-.22-1-.49-1.18-1.01.07-.35.31-.73.7-.85.6.53 1.91.73 2.41.69.42-.04.97-.27.76-.81-.45-.56-1.22-.66-1.85-.93-.63-.22-1.07-.53-1.6-1.02-.55-.6-.63-1.84.11-2.66.5-.45 1.75-1.11 3.22-.7.73.22 1.29.56 1.56.97.03.34-.35.84-.8.8-.29-.17-1.08-.49-1.67-.48-.5-.01-1.11.15-1.14.95.25.76 1.07.79 1.72 1.01.63.22 1.95.59 2.26 1.71.14.63.04 1.56-.87 2.1-.82.53-2.32.78-3.63.23z"/><path d="M197.72 6.45c-.39-.04-1.78-.07-2.35-.24-.07-.15-.13-.83.03-1.39.74-.14 1.99-.21 2.4-.21.04-.76.11-2.23.2-2.57.11-.08.43-.29.69-.27.15 0 .5 0 .66.15.07.55.16 2.12.16 2.68.41.03 1.58-.03 2.21.32.06.24.07.9-.08 1.26-.29.15-1.75.21-2.16.25.06 1.26-.11 4.25-.18 4.98-.28.2-.87.28-1.35 0-.13-.55-.15-1.99-.2-3.04l-.03-1.92z"/><path d="M205.57 8.76c.08-.34.21-1.58 1.27-2.13.56-.43 1.6-.8 2.75-.77-.86-.81-2.1-.58-3.15-.42-.18.08-.41.15-.62.28-.1-.2-.21-.39-.25-.62-.02-.2-.02-.42-.02-.65.45-.35.97-.56 1.58-.77.53-.17 1.13-.25 1.78-.21.38.04.76.21 1.08.42.34.17.65.45.9.79.46.58.74 1.18.84 1.92.13.71.17 1.49.13 2.24l-.03 1.04c0 .53.14.45.27.63.08.21.27.72-.18.97-.58.2-.93.25-1.18-.06l-.17-.36c-.34.31-1.66.77-3.06.56-1.49-.32-1.96-1.54-1.94-2.86zm4.67.7l-.1-1.82c-1.84-.43-2.63.34-2.82 1.02-.2 1.05.53 1.58 1.06 1.51 1-.1 1.55-.44 1.86-.71z"/><path d="M216.58 11.23c.01-.35.63-.86 1.04-.53.34.95 1.96.95 2.52.43.24-.27.55-.74.45-1.56-.31.34-.76.59-1.62.7-1.56.04-1.92-.67-2.14-.91-.31-.36-.81-1.26-.77-2.83.07-.63.28-1.44 1.09-2.27.34-.29.83-.77 1.92-.8 1.26-.03 1.63.46 1.92.69.29.03 1.06.06 1.06.06.16.71.21 3.85.14 4.63-.03.67-.13 1.3-.29 1.95-.63 2.06-2.93 2.29-3.71 2.03-.85-.2-1.44-.99-1.61-1.59zm4.14-3.2c.03-1.29-.01-1.85-.04-2.34-.24-.63-1.44-.74-2-.5-.7.36-.91.95-.98 1.23-.28 1.15.21 1.75.5 1.96.43.31 1.63.34 2.52-.35z"/><path d="M226.22 7.63c-.01-1.04-.04-3.76.06-4 .41-.21 1.15-.22 1.43-.06l.07 1.25c.74-.83 2.52-.88 3.34-.55.13.29.01 1.04-.16 1.33-.46.1-1.88.17-2.21.58-.71.46-.83 1.05-.8 1.39-.03.67-.01 1.16.06 3.73-.28.2-1.16.29-1.33.17-.27-.76-.48-2.64-.46-3.84z"/><path d="M235.04 8.76c.08-.34.21-1.58 1.27-2.13.56-.43 1.6-.8 2.75-.77-.86-.81-2.1-.58-3.16-.42-.18.08-.41.15-.62.28-.1-.2-.21-.39-.25-.62l-.01-.65c.45-.35.97-.56 1.58-.77.53-.17 1.14-.25 1.78-.21.38.04.76.21 1.08.42.34.17.64.45.9.79.46.58.74 1.18.84 1.92.12.71.17 1.49.12 2.24l-.03 1.04c0 .53.14.45.27.63.08.21.27.72-.18.97-.58.2-.93.25-1.18-.06l-.17-.36c-.34.31-1.65.77-3.06.56-1.48-.32-1.94-1.54-1.93-2.86zm4.67.7l-.1-1.82c-1.84-.43-2.64.34-2.82 1.02-.2 1.05.53 1.58 1.07 1.51.99-.1 1.54-.44 1.85-.71z"/><path d="M251.92 8.05c.08-1.79-.8-2.82-1.91-1.85.15.74.28 1.61.24 2.5.01 1.37-.27 2.38-.39 2.87l-1.18-.15.14-1.14s.35-3.58-.28-4c-1.01-.46-1.33.2-1.47.52l-.03 4.56c-.28.18-1.07.18-1.22-.03-.13-.86-.1-1.72-.11-2.94 0-.88-.08-3.45 0-3.56.1-.03.67-.21 1.12-.04.14.14.06.38.13.38.35-.73 1.94-.9 2.5-.25.22-.25.46-.46.74-.59.87-.31 1.98.04 2.5.91.21.32.62 1.46.62 3.18 0 1.25-.2 2.78-.31 3.14-.08.07-.93.21-1.22.01-.01 0 .18-2.47.13-3.52z"/></g><g fill="#fff"><path d="M31.72 57.77c-.92-.19-1.83-.34-2.72-.44-.9-.1-1.75-.29-2.58-.58v-.65c.44-.92.65-1.89.65-2.9l-.15-.29c.34-.87.48-1.84.44-2.9l-.15-1.16.15-.87c.1-1.69-.11-3.22-.62-4.57s-.91-2.81-1.2-4.35l-.36-.8-.29-.07-1.6-1.6-2.18-.51c-1.21.29-2.27.9-3.19 1.81-1.31 2.13-2.06 4.43-2.25 6.9-.19 2.47-.51 4.89-.94 7.26l.07.8c0 1.21-.24 2.35-.73 3.41l.15.36-.87.87h-2.9c-1.31-.1-2.52-.39-3.63-.87v-.51l-.65-.22c-.39-2.23-.92-4.43-1.6-6.61-.68-2.18-.99-4.4-.94-6.68l.07-.36-.07-.73.07-.94c0-2.37-.16-4.73-.47-7.08-.31-2.35-.66-4.66-1.05-6.93l.22-2.18c-.34-2.08-.75-4.14-1.23-6.17-.49-2.03-.88-4.04-1.17-6.02l.15-.29h.14l.44.29v.15l.36.15.29.51.51.36 2.03 1.81 1.6 1.74h.51c1.4-.44 2.81-.85 4.21-1.23l.44-.29.15-.65h.29l.07-.44h.29l.15-.8h.15l1.52-2.69.73-.15.07.65-.07 1.02c.15 1.16.32 2.27.51 3.34h.07c.19 1.26.47 2.49.83 3.7s.64 2.44.83 3.7l.29.07.94-.22.15-.44c.87-.34 1.74-.58 2.61-.73.87-.15 1.79-.24 2.76-.29 1.98-.05 3.79.36 5.41 1.23s3.25 1.62 4.9 2.25c.39.58.87.97 1.45 1.16l.58-.22.87-.8h.15v-.22c.73-.1 1.35-.46 1.89-1.09.44-.77.77-1.67 1.02-2.69.24-1.02.36-2.03.36-3.05l-.73-1.16c-.53-.44-1.21-.6-2.03-.51l-.51.22c-.24.48-.34 1.09-.29 1.81.53.29 1.06.58 1.6.87l.44.94-1.09 1.16h-.44c-.92-.15-1.72-.44-2.4-.87-.63-.63-.9-1.38-.8-2.25l.15-.65-.15-.58c.1-.92.29-1.79.58-2.61h.22l.07-.73h.29l.15-.29h.15l.15-.44c1.26-.68 2.66-.99 4.21-.94 1.26.19 2.4.65 3.41 1.38.73 1.4 1.23 2.88 1.52 4.43.29 1.55.39 3.15.29 4.79-.15.97-.44 1.86-.87 2.69-.44.82-.87 1.62-1.31 2.4l-1.45.94-.22.36-.22.29-.29.36-.44.29-.15.94c.39.87.68 1.81.87 2.83.19 1.02.27 2.06.22 3.12-.48 3.82-1.43 7.49-2.83 11-1.4 3.51-3.24 6.71-5.52 9.62l-.51.33zm-25.4-33.97c.44-.29.6-.73.51-1.31-.19-.44-.51-.77-.94-1.02h-.66c-.48.24-.82.58-1.02 1.02v.65c.19.44.53.77 1.02 1.02h.65l.44-.36zm6.53-.65c.39-.34.56-.77.51-1.31-.19-.48-.51-.85-.94-1.09h-.65c-.48.24-.85.61-1.09 1.09v.58c.24.48.61.82 1.09 1.02h.65l.43-.29z"/><path d="M53.16 58v-.21c-.88-.2-1.74-.52-2.6-.98v-.13l-.21-.04v-.08l-.6-.43-.08-.17-.17-.13-.26-.21v-.08h-.17l-.13-.21h-.13l-.26-.25v-.08h-.21v-.13c-.43-.2-.79-.45-1.11-.77l-.08-.21-.13-.04-.13-.47-.17-.08-.09-.17-.09-.04-.34-.55h-.09l-.08-.21-.26-.47h-.13c-.14-1.22-.25-2.45-.32-3.7s-.11-2.51-.11-3.79c.08-.62.22-1.23.4-1.83.18-.6.52-1.16 1-1.7l.38-.25.38-.81h.21l.47-.94.21-.04c.34-1.16.55-2.38.62-3.64.07-1.26.19-2.52.36-3.77h.13c.17-.51.33-1.04.47-1.57h.13l.04-.34.26-.13.51.38.04.17.85.43.08.13.17.17.38.34.13.43h.09l.09.25.26.3.47.77h.09l.6 1.11h.13l1.15 2.43c.99.2 1.97.34 2.94.42l.43-.08v.13c.68.06 1.34.2 1.98.42.64.23 1.25.51 1.85.85.51-.31 1.03-.59 1.55-.83.53-.24 1.06-.47 1.6-.7l.25-.25c.68-.31 1.38-.52 2.11-.62.72-.1 1.44-.19 2.15-.28l.21.89-.38.94-1.23 1.4-.3.26h-.09c-.31.48-.63.96-.96 1.42-.33.47-.59.96-.79 1.47l-.25.3c-.11.34-.24.67-.38.98l.17.85-.17 1.15.08.64c-.17.71-.28 1.42-.32 2.15-.04.72-.26 1.38-.66 1.98l-.47.13c-1.82-.51-3.66-1.05-5.53-1.62-1.87-.57-3.77-.98-5.7-1.23l-.04-.21-.47-.04-.43.13c-.23.74-.46 1.46-.7 2.17-.24.71-.42 1.45-.53 2.21.23.48.53.91.89 1.28l.08.13.68.59v.13l.21.04.04.17.13.09v.17l.17.13.25.13.34.3v.13c.54.17 1.06.35 1.57.53.51.18 1.06.28 1.66.28.65-.2 1.35-.35 2.09-.45.74-.1 1.39-.36 1.96-.79l.13-.68-.04-.25-.55-.08-.51.51h-.68l-.45-.15-.17-.47.47-1.23h.13l.13-.38c.48-.4 1.04-.6 1.66-.6l1.11.34.26.47h.21l.3.68h.17l.13.72c-.08.62-.23 1.19-.43 1.7l-.38.34v.13c-.48.34-1.01.62-1.57.85l-.26.38c-.51.17-1.01.4-1.49.68s-1.02.41-1.62.38l-.43-.08-1.57.17h-.35c-.71.2-1.42.34-2.13.42l-.09-.13-.12.13zm.42-8.04l-.34-.21c-.31-.23-.43-.51-.34-.85l.34-.68.13-.13.43-.13c.37.03.67.18.89.47.14.23.2.47.17.72 0 .31-.14.54-.43.68l-.51.13-.09-.08-.04.08-.09-.08-.12.08zm7.02-4.34v-.42l-.13-.64h-.13c-.4-.91-.94-1.75-1.62-2.51-.57-.42-1.21-.64-1.91-.64l-.6.13-.47-.04-.64.21-.08.13c-.4.14-.71.37-.94.68l-.6 1.15c1.19.37 2.35.77 3.49 1.19 1.15.42 2.36.68 3.63.76zm-2.76 5.07v-.09c-.23 0-.45-.13-.68-.38-.17-.17-.24-.41-.21-.72.48-.4 1.06-.55 1.74-.47l.21.13.13.6-.08.13-.34.3-.13.3-.64.2z"/><path d="M77.78 57.92c-.62-.17-1.28-.28-1.96-.34-.77-3.97-1.37-8-1.81-12.08-.44-4.08-.89-8.16-1.34-12.21l.04-1.49-.17-2.81.09-.34-.17-1.4.09-.21-.13-1.11.04-1.92-.04-1.53.04-.17h.34l.34.09c.68 0 1.34-.04 1.98-.11.64-.07 1.3-.15 1.98-.23l.3.04.21-.04 1.91.13.94-.13.13.04.08-.04 1.45.26.08.34c-.28.68-.43 1.43-.43 2.26l.13.51-.13.81.09.34c0 .96-.09 1.93-.26 2.89l.04 1.32-.21 2.81.08.08-.08 1.23.43.38c.82.17 1.67.25 2.53.25.87 0 1.69.04 2.49.13l.68-.04c.96.08 1.94.17 2.94.25v.13c.6.08 1.18.16 1.77.21.58.06 1.14.18 1.68.38l.08.43-.25.04v.25l-.64.3-.21.26h-.13v.13l-.43.26v.17c-.65.57-1.33 1.06-2.04 1.49l-.13.26-.64.34c-.4.79-.64 1.69-.72 2.68l.04 1.23c-.17.82-.28 1.69-.34 2.6.68.25 1.33.6 1.94 1.04.61.44 1.23.84 1.85 1.21l.21.3h.13l.72.6.38.13v.38l-1.66.89-.46.41c-1.79.51-3.58.97-5.38 1.36-1.8.4-3.62.72-5.47.98l-.22 1.66c.17.37.24.78.21 1.23-.9.52-1.91.75-3.01.69zm5.95-8.72c.26-.2.37-.51.34-.94l-.68-.55h-.38c-.31.11-.54.33-.68.64v.38c.14.31.37.55.68.72h.38l.34-.25zm.13-7.36c.28-.2.4-.48.34-.85-.11-.31-.33-.54-.64-.68h-.43c-.31.14-.54.37-.68.68v.38c.14.31.37.55.68.72h.43l.3-.25z"/><path d="M105.71 57.88c-.79-.11-1.6-.22-2.4-.32s-1.6-.3-2.36-.62l-.08-.21h-.17v-.08c-.23-.03-.41-.14-.55-.34l-.08-.17h-.17l-.13-.17h-.13v-.09l-.26-.21v-.25h-.21l-.13-.13-.08-.3-.26-.26-.17-.13-.04-.3h-.17v-.21l-.21-.08-.08-.21-.17-.08v-.17h-.13l-.08-.43-.21-.04-.43-.51-.08-.42h-.08c-.28-.6-.54-1.21-.77-1.85-.23-.64-.34-1.31-.34-2.02l.09-.72-.09-.17c.11-1.3.31-2.54.57-3.72.27-1.18.73-2.32 1.38-3.43l.64-.64v-.21h.17l.04-.21h.17l.04-.21.21-.04.08-.17.6-.64.04-.21h.13l.13-.17.21-.21.34-.17.04-.17c1.05-.48 2.11-.85 3.19-1.11 1.08-.25 2.21-.34 3.4-.25 1.02-.09 1.96.03 2.81.34l.3-.04c.77.2 1.46.51 2.09.94l.08.21.17.08.08.26.17.3.17.13.21.13.47.51v.13l.34.17.13.34h.21c.31.43.54.88.68 1.36l.13.08.08.21c.17.08.24.24.21.47l.17.04.04.34.21.08c.28.65.51 1.34.68 2.06.17.72.31 1.45.43 2.19l.17.08.13 1.36c.06.94-.07 1.76-.38 2.47h-.13c-.23.6-.45 1.19-.68 1.77-.23.58-.54 1.13-.94 1.64l-.21.25-.26.25h-.08l-.26.43-.85.55-.77.94-1.02.64c-.31.45-.71.81-1.19 1.06-.77.08-1.56.13-2.38.15-.81-.01-1.62.04-2.42.13zm3.66-6l1.15-1.11c.48-.74.72-1.57.72-2.51l-.08-.17.08-.21c-.23-.82-.44-1.66-.64-2.51.2-.54.38-1.08.53-1.62.16-.54.19-1.13.11-1.79v-.34h-.38l-.55.47-.17.21-.34.3h-.08l-.09.25h-.13l-.13.21-.72.64-.43.81-1.4.21-1.53-.13-.68.09-.09-.09-.21-.17-.51-1.06-.21-.3-.17-.13-.3-.51-.38-.34-.08-.21-.89-.47v.55l.23 2.13c.07.68.16 1.36.28 2.04-.2.48-.33.99-.4 1.53s-.09 1.09-.06 1.66l.3.72h.08v.13h.09c.17.4.45.75.85 1.06.57.37 1.18.65 1.83.85s1.35.3 2.09.3c.82-.04 1.6-.21 2.31-.49zm-5.23-3.66c-.28-.08-.47-.25-.55-.51v-.43c.09-.28.27-.47.55-.55h.38c.28.08.47.27.55.55v.43c-.08.26-.27.43-.55.51h-.38zm4.25.04c-.25-.06-.43-.24-.51-.55v-.34c.08-.28.26-.47.51-.55h.38c.28.09.47.27.55.55v.34c-.08.31-.27.5-.55.55h-.38z"/><path d="M127.97 58c-1.33-.57-2.65-1.18-3.94-1.85-1.29-.67-2.55-1.44-3.77-2.32l-.17-.21-.55-.38v-.64c.31-.82.6-1.62.85-2.38l.17-.08.04-.21.34-.04c1.13.26 2.26.57 3.38.94s2.29.64 3.51.81l.13-.17c.28-.06.54-.23.77-.51l.3-.3h.13v-.38l.21-.13c.2-.43.27-.88.21-1.36l-.51-.85c.31-.4.48-.86.51-1.4l-.3-.13c-.6.31-1.22.62-1.87.94-.65-.28-1.28-.58-1.87-.89l-.08-.17-.55-.13v-.51l.3-1.91h-.17c-.57.31-1.06.74-1.49 1.28h-.09l-.08.21-.21.04-.55-.43-1.32-.81-.04-.13-.17-.13v-.13c.43-.82.77-1.68 1.04-2.57.27-.89.62-1.77 1.04-2.62l.51-.64c.17-.17.38-.31.64-.43 1.05-.37 2.12-.7 3.21-1s2.23-.48 3.43-.53c1.33.28 2.6.71 3.79 1.28 1.19.57 2.34 1.19 3.45 1.87l.04.17.26.13.08.47-1.06 2.25-.3.3h-.21c-1.28-.14-2.5-.4-3.68-.79-1.18-.38-2.42-.63-3.72-.75l-.6.21-.09.17-.26.34v.17c.62.65 1.32 1.25 2.08 1.79h.09c.43.45.88.81 1.36 1.06l.08.13.34.21.04.17.43.17v.17l.38.13v.13h.17l.77.64h.09v.13l.55.3c.28.37.49.77.64 1.19l-.13 2.51.08.55-.13.43.04.42c.06.6-.1 1.11-.47 1.53l-.81.89-.94.89-1.15 1.02c-.65.4-1.33.77-2.04 1.11-.7.34-1.42.59-2.16.76zm-4.21-9.14c-.23-.08-.38-.27-.47-.55v-.3c.09-.28.24-.45.47-.51h.38c.26.06.43.23.51.51v.3c-.08.28-.26.47-.51.55h-.38zm3.27 1.14c-.28-.06-.45-.23-.51-.51v-.3c.06-.28.23-.45.51-.51h.38c.26.06.43.23.51.51v.3c-.09.28-.26.45-.51.51h-.38z"/><path d="M150.8 57.79l-.77-.21c-.31-1.02-.57-2.06-.79-3.13-.21-1.06-.4-2.13-.57-3.21l.04-.13c-.2-1.22-.4-2.42-.62-3.59-.21-1.18-.45-2.35-.7-3.51-.31-.2-.68-.25-1.11-.17l-.13.04c-.94-.2-1.87-.41-2.79-.62-.92-.21-1.82-.41-2.7-.58 0-.91-.11-1.77-.34-2.6l.04-.72c-.11-.37-.17-.81-.17-1.32l.04-.13c1.16-.11 2.33-.36 3.51-.74 1.18-.38 2.39-.65 3.64-.79l.04-.51c-.11-.43-.17-.92-.17-1.49h-.13l-.13-1.87.09-.34-.09-.43.09-1.45-.09-.38.09-.26c-.17-.82-.23-1.7-.17-2.64l.21-.94.26-.13c.31.45.6.9.87 1.34.27.44.58.84.91 1.21l.47.98.13.09c.43.06.89.16 1.4.3l.25-.08.94.21c.57-.14 1.15-.27 1.74-.38l.21-.26.13-.25h.08c.28-.54.58-1.06.89-1.57l.38-.3c.06-.4.27-.74.64-1.02l.38-.04c0 .68.04 1.35.13 2-.09.82-.19 1.62-.3 2.38v3.23l-.04.89.04.38-.04.6.04.81c1.25.26 2.48.46 3.7.62 1.22.16 2.41.43 3.57.83l.08 1.02-.68 3.49c-1.25.14-2.49.31-3.72.49-1.23.19-2.4.55-3.51 1.08-.2.99-.31 2.04-.32 3.13-.01 1.09-.09 2.18-.23 3.25h-.13l-.09 1.41.1.22-.04.55h-.08v.17l.08.85c-.11.4-.2.78-.26 1.15l.13.34c-.03.85-.13 1.69-.3 2.51l-.6.08-.77-.08-.64.21-.85-.13-1.27.14zm-.68-23.4c.2-.14.28-.37.26-.68-.09-.28-.27-.47-.55-.55h-.38c-.23.08-.41.27-.55.55v.34c.14.23.33.43.55.6h.38l.29-.26zm4.51.25c.23-.2.33-.47.3-.81-.11-.26-.31-.44-.6-.55h-.34c-.28.11-.47.3-.55.55v.38c.09.28.27.48.55.6h.34l.3-.17z"/><path d="M179.78 58c-.71-.17-1.44-.3-2.19-.4-.75-.1-1.48-.25-2.19-.45v-.13c-.8-.28-1.6-.6-2.43-.94l-.55-1.15h-.13c-.54-.88-.89-1.84-1.06-2.89h-.13c-.31-.54-.52-1.1-.64-1.68-.11-.58-.27-1.14-.47-1.68l-.21-.04-.04-.38h-.17l-.04-.17-1.15-.77-.04-.26h-.25l-.47-.51v-.17l-.21-.04-.3-.26v-.17l-1.4-1.02-.09-.3-.17-.17-.43-.55v-.17l.13-.3 2.17-.64.34.04.55-.04.3.04c.57-.14 1.15-.23 1.74-.28.6-.04 1.18-.18 1.75-.4l.04-.17.26-.26 1.11-.81.13-.21.68-.85 1.02-.55.38-.38c.14-.57.29-1.13.45-1.68.16-.55.25-1.16.28-1.81l.21-.04c.14-.51.25-1.05.34-1.62h.13c.11-.91.41-1.73.89-2.47l.64-.38.38.17.13.77c.2.14.26.33.17.55h.13l.17.55.08.08.09.55.25.08.04.51.17.08.08.21.17.04.09.47.17.09.04.3.17.04.08.26.13.08c.37.54.65 1.12.85 1.74l.13.09.25.26v.17l1.11.34v.13c.62.17 1.25.38 1.87.64v.17l.47.17v-2.81c.57-.23 1.16-.43 1.79-.62.62-.18 1.3-.28 2.04-.28l.59.13c.37.65.6 1.39.68 2.21h.17l.17.72c.11.2.16.41.13.64h.17l.13.6h.13c.08.51.21.99.38 1.45h.04l.17.64.13.04.09.64h.13c.43.79.72 1.65.89 2.55h.08l.08.64h.17l.13.68h.17c.14.62.33 1.19.55 1.7l.17.13c.2.65.3 1.38.3 2.17h.13l.13.94h.13l.08.68h.21c.34.85.54 1.73.6 2.64l-.17.55c-.94.4-1.93.7-2.98.89-1.05.2-2.07.47-3.06.81l-1.11-.17-.09-.3h-.13l-.13-.6h-.13l-.08-.47h-.17l-.13-.55h-.13l-.04-.38h-.21l-.08-.34-.17-.08-.04-.17-.13-.04-.17-.21h-.26l-.68.64c-.76.28-1.46.67-2.08 1.15l-.17.21c-.65.48-1.35.92-2.08 1.32v.17c-.74.39-1.52.6-2.34.65zm2.43-5.27l1.02-.85h.38l.04-.26h.17l.08-.34h.17c.62-.82.88-1.83.77-3.02-.03-.43-.13-.82-.3-1.19l-.17-.17-1.23-.77v-.13c-.88-.37-1.79-.64-2.72-.81-.48.2-.94.35-1.36.47l-.3.17-.04.25-.94.6-.08.17-.17.21-.34.21v.13h-.09l-.17.98.17 2.72h.09l.08.77.25.04.04.3.13.04.08.34.21.21v.13c.68.28 1.36.42 2.04.42.73-.21 1.45-.42 2.19-.62zm-3.79-2.77c-.31-.08-.51-.28-.6-.59v-.38c.08-.31.28-.52.6-.64h.43c.31.11.51.33.6.64v.38c-.08.31-.28.51-.6.59h-.43zm2.47-2.21c-.29-.09-.48-.28-.6-.6v-.47c.11-.28.31-.47.6-.55h.43c.34.08.55.27.64.55v.47c-.08.31-.3.51-.64.6h-.43z"/><path d="M208.55 69.15c-.88-.08-1.69-.4-2.42-.94v-.08h-.13l-.34-.34h-.08v-.08l-.42-.13v-.13l-.51-.43c-.25-.28-.44-.57-.55-.85l-.13-.21h-.13l-.13-.25-.13-.04c-.34-.57-.52-1.19-.53-1.87-.01-.68-.05-1.38-.11-2.08l.08-.3-.13-.51c.14-.46.31-.91.51-1.36.2-.45.48-.85.85-1.19.37-.28.77-.49 1.21-.62.44-.13.92-.22 1.42-.28.85.06 1.66.3 2.43.72l.04.25h.09c.31.54.47 1.13.47 1.79.03.71-.16 1.36-.55 1.96l-.64.3-.6-.43-.12-1.24.08-.51-.34-.21v-.09l-1.02-.21-.6.13c-.11.74-.25 1.46-.42 2.17.23.54.5 1.08.81 1.62l.38.25v.21c.74.37 1.55.51 2.43.42.79-.14 1.57-.3 2.34-.47l.09-.13h.21l.21-.3.51-.43.08-.21h.17l.25-.43c.28-.2.5-.47.64-.81l.08-.17.17-.09c.43-.77.84-1.55 1.23-2.34.4-.79.57-1.65.51-2.55-.09-.54-.18-1.05-.28-1.53-.1-.48-.19-.96-.28-1.45h-.08c-.08-.6-.24-1.09-.47-1.49-.08-.34-.16-.7-.21-1.06h-.25l-.43.3-.43.38-.17.42c-.51.28-1.04.53-1.58.72l-.04.08c-.68.26-1.34.55-1.98.87-.64.33-1.33.59-2.06.79l-.81-.42-.64-.43v-.13l-.17-.04v-.13h-.21l-.59-.51v-.26h-.13l-.13-.13-.26-.13-.13-.17-.25-.13-.3-.68-.13-.21-.21-.09-.85-.64v-.13c-.31-.2-.68-.28-1.11-.25l-.3.04c-.62-.11-1.25-.27-1.87-.47l-.64.09-.34-.13c-.51.11-1.08.17-1.7.17l-.34-.17v-.26l.17-.08c.31-.37.6-.77.85-1.19l.13-.04.3-.6c.25-.25.5-.57.72-.94l1.4-1.4h.17l.34-.47.81-.47c0-.59.11-1.11.32-1.55.21-.44.47-.86.79-1.26l.6-.51.55-.26.21-1.4c-.08-.48-.17-.94-.25-1.36l.08-.77-.04-.13.04-.34-.04-.47c.14-.45.21-.92.21-1.4s.03-.96.09-1.45h.17l1.06.64.21.3.3.08v.17l.77.47c.34.51.67 1.06.98 1.64s.65 1.11 1.02 1.6l.6.55 1.4.04c.57 0 1.08-.14 1.53-.43l.09-.47c-.14-.59-.29-1.19-.45-1.79-.16-.6-.29-1.19-.4-1.79l.85-.3v.04c.85-.26 1.73-.44 2.64-.55.91-.11 1.82-.24 2.72-.38l.85.13v.09h.09l.47-.09v.09l.17.04c.23 1.22.47 2.42.72 3.6.26 1.18.38 2.42.38 3.72l-.06.24c.11 1.08.21 2.16.28 3.23.07 1.08.16 2.16.28 3.23l-.13.17.17.04.13 1.19.26.08c.09.82.2 1.62.34 2.4.14.78.21 1.61.21 2.49l-.04 1.36c.14.62.18 1.26.13 1.92-.11.48-.3.95-.55 1.4l.04.17-.21.13c-.14.51-.35.96-.62 1.36-.27.4-.56.81-.87 1.23l-.21.08-.38.55-.76.81c-.26.54-.55 1.05-.87 1.55-.33.5-.63 1-.91 1.51l-.21.07v.13h-.13c-.08.25-.23.48-.42.68-1.08.62-2.19 1.13-3.32 1.53-1.14.4-2.36.67-3.66.81zm.38-20.93l.17-.04v-.13h.08l.17-.38.43-.55c.23-.43.4-.88.51-1.36s.16-.99.13-1.53c-.11-.31-.31-.58-.6-.81-.6-.57-1.3-.88-2.13-.94-.59 0-1.13.11-1.62.34-.4.54-.78 1.08-1.15 1.62-.37.54-.51 1.16-.43 1.87l.38 1.06.17.04.09.3.13.04.47.51c.45.4 1.01.54 1.66.42l1.54-.46zm-3.23-1.36c-.26-.11-.43-.3-.51-.55v-.3c.08-.25.25-.43.51-.51h.34c.26.08.41.25.47.51v.3c-.06.26-.21.44-.47.55h-.34zm1.45-2.26c-.26-.06-.41-.21-.47-.47v-.38c.06-.23.21-.38.47-.47h.34c.25.09.43.24.51.47v.38c-.08.25-.25.41-.51.47h-.34z"/><path d="M227.27 57.58l-.85-.13c-.26-.68-.45-1.39-.57-2.13-.13-.74-.22-1.5-.28-2.3l.04-.21c-.14-.77-.24-1.56-.3-2.38l.04-.47c-.11-.68-.24-1.36-.38-2.04l.08-.13c-.14-.88-.26-1.76-.36-2.64-.1-.88-.23-1.74-.4-2.59l.08-.17-.13-2.64v-4.17c.03-.88.11-1.75.23-2.62.13-.86.26-1.74.41-2.62h.25l.08.08.13.3.08.09c.26.25.41.58.47.98l.21.04c.28.51.52 1.05.72 1.62.57.23 1.16.36 1.79.4.62.04 1.23.09 1.83.15l.77-1.06.38-.17.08-.21.55-.38.08-.13.34-.38c.34-.31.71-.47 1.11-.47l.38.25v.21c-.4.96-.73 1.96-1 3s-.45 2.11-.53 3.21l.42.13.26-.13.04-.17c.54-.28 1.11-.5 1.7-.64v-.16l.34-.04.08-.17c.74-.23 1.52-.35 2.34-.36.82-.01 1.63-.11 2.43-.28l1.49.51v.04c.51.17.99.4 1.45.7.46.3.92.57 1.4.83l.17.26.3.34v.51h.21c.11.31.18.61.21.89h.09l.25 1.74c-.11.79-.3 1.5-.55 2.13l-.21.21v.13l-.26.17h-.13l-.09.21-.47.34c-.54.37-1.16.54-1.87.51l-.2-.07-.43.08c-.31-.17-.61-.34-.89-.51v-.13l-.26-.04v-.17h-.17l-.09-.21h-.13l-.03-.26-.17-.04c-.17-.45-.25-.94-.25-1.45.14-.28.23-.64.25-1.06l.17-.08.17-.25c.17-.14.38-.2.64-.17v.08h.25v.13l.17.04v.17h.13v.38l-.17.68c0 .31.08.6.25.85h.21v.17l1.02.08.98-.55.21-.38.17-.08.17-1.15c-.11-.43-.25-.81-.42-1.15l-.17-.04v-.14h-.17l-.21-.3v-.09c-.79-.34-1.65-.51-2.55-.51l-.08.04-.08-.04c-.79 0-1.46.2-2 .6l-.04.13c-.77.4-1.5.82-2.21 1.28l-.04.13-1.19.98v.17l-.47.26c-.34.6-.74 1.19-1.19 1.79-.46.6-.85 1.21-1.19 1.83h-.08c-.14.65-.33 1.3-.55 1.96h-.13c-.06.54-.13 1.09-.21 1.66l-.26.13-.26 1.49c-.08.51-.13 1.04-.13 1.57h.09v.04c-.11.65-.23 1.32-.34 2-.11.68-.24 1.32-.38 1.92-.82.17-1.66.25-2.51.25h-.16zm-.17-19.83c.23-.2.33-.45.3-.77-.11-.28-.31-.48-.59-.6h-.38c-.26.11-.42.31-.51.6v.34c.09.29.25.48.51.6h.38l.29-.17zm4 .38c.2-.17.28-.43.25-.77-.11-.26-.3-.43-.55-.51h-.34c-.28.08-.5.25-.64.51v.38c.14.25.35.45.64.6h.34l.3-.21z"/><path d="M262 58c-.71-.17-1.44-.3-2.19-.4-.75-.1-1.48-.25-2.19-.45v-.13c-.79-.28-1.6-.6-2.43-.94l-.55-1.15h-.13c-.54-.88-.89-1.84-1.06-2.89h-.13c-.31-.54-.52-1.1-.64-1.68-.11-.58-.27-1.14-.47-1.68l-.21-.04-.04-.38h-.17l-.04-.17-1.15-.77-.04-.26h-.25l-.47-.51v-.17l-.21-.04-.3-.26v-.17l-1.4-1.02-.08-.3-.17-.17-.43-.55v-.17l.13-.3 2.17-.64.34.04.55-.04.3.04c.57-.14 1.15-.23 1.74-.28.6-.04 1.18-.18 1.75-.4l.04-.17.25-.26 1.11-.81.13-.21.68-.85 1.02-.55.38-.38c.14-.57.29-1.13.45-1.68.16-.55.25-1.16.28-1.81l.21-.04c.14-.51.26-1.05.34-1.62h.13c.11-.91.41-1.73.89-2.47l.64-.38.38.17.13.77c.2.14.26.33.17.55h.13l.17.55.08.08.08.55.26.08.04.51.17.08.08.21.17.04.08.47.17.09.04.3.17.04.08.26.13.08c.37.54.65 1.12.85 1.74l.13.09.26.26v.17l1.11.34v.13c.62.17 1.25.38 1.87.64v.17l.47.17v-2.81c.57-.23 1.16-.43 1.79-.62.62-.18 1.3-.28 2.04-.28l.59.13c.37.65.6 1.39.68 2.21h.17l.17.72c.11.2.16.41.13.64h.17l.13.6h.13c.09.51.21.99.38 1.45h.04l.17.64.13.04.08.64h.13c.43.79.72 1.65.89 2.55h.08l.08.64h.17l.13.68h.17c.14.62.33 1.19.55 1.7l.17.13c.2.65.3 1.38.3 2.17h.13l.13.94h.13l.08.68h.21c.34.85.54 1.73.59 2.64l-.17.55c-.94.4-1.93.7-2.98.89-1.05.2-2.07.47-3.06.81l-1.11-.17-.09-.3h-.13l-.13-.6h-.13l-.08-.47h-.17l-.13-.55h-.13l-.04-.38h-.21l-.09-.34-.17-.08-.04-.17-.13-.04-.17-.21h-.25l-.68.64c-.77.28-1.46.67-2.08 1.15l-.17.21c-.65.48-1.35.92-2.08 1.32v.17c-.72.39-1.5.6-2.32.65zm2.42-5.27l1.02-.85h.38l.04-.26h.17l.09-.34h.17c.62-.82.88-1.83.77-3.02-.03-.43-.13-.82-.3-1.19l-.17-.17-1.23-.77v-.13c-.88-.37-1.79-.64-2.72-.81-.48.2-.94.35-1.36.47l-.3.17-.04.25-.94.6-.08.17-.17.21-.34.21v.13h-.09l-.17.98.17 2.72h.09l.08.77.25.04.04.3.13.04.09.35.21.21v.13c.68.28 1.36.42 2.04.42.71-.22 1.44-.43 2.17-.63zm-3.78-2.77c-.31-.08-.51-.28-.6-.59v-.38c.08-.31.28-.52.6-.64h.43c.31.11.51.33.59.64v.38c-.08.31-.28.51-.59.59h-.43zm2.47-2.21c-.28-.09-.48-.28-.6-.6v-.47c.11-.28.31-.47.6-.55h.43c.34.08.55.27.64.55v.47c-.09.31-.3.51-.64.6h-.43z"/><path d="M315.49 58.64l-.94-.17-.25.04-.21-.04-1.58.04-.3-.13c-.23-1.53-.47-3.08-.72-4.64-.26-1.56-.43-3.15-.51-4.77h-.17l-1.45 1.49-.81.85c-.74.94-1.41 1.91-2.02 2.94-.61 1.02-1.07 2.1-1.38 3.23l-.68.09c-.71-.2-1.49-.34-2.34-.43l-.94.13-.26-.13-2.81.21-.17-.08-.21-.25-1.23-2.47c-.54-.68-1.04-1.4-1.49-2.15-.45-.75-.98-1.48-1.58-2.19v-.13l-.21-.13-.34-.68-.21-.04-1.15-1.74-.47-.04c-.37 1.39-.64 2.84-.81 4.34-.17 1.5-.33 3.01-.47 4.51l.08 1.06-.08.38c-.68.34-1.43.53-2.26.58-.82.04-1.64.06-2.47.06l-1.19-.25c-.77-3.69-1.55-7.43-2.36-11.21s-1.4-7.58-1.77-11.38l.08-.3.43-.08.77.08 2.21-.3 2.98.21 1.15-.21c.37 0 .69.11.98.34-.06 1.16.2 2.21.77 3.15l.43.08c.91-.94 2-1.38 3.28-1.32.88.03 1.71.16 2.51.38.79.23 1.52.64 2.17 1.23.31.31.65.61 1.02.89v.09h.17c.57.54.98 1.12 1.23 1.74h.17l.26.34h.13l.21.21.38.34 1.19-1.36h.17v-.15l1.53-1.36h.08l.51-.72.47-.47h.13l.08-.25.34-.09.04-.21c.94-.37 1.9-.65 2.89-.85.99-.2 2.06-.3 3.19-.3.79.09 1.59.24 2.38.47l.08.21c.71.29 1.38.65 2 1.09.62.44 1.25.9 1.87 1.38l.34.38c.4.65.73 1.33 1 2.04s.47 1.45.62 2.21l-.13.34.13.51c-.26.71-.41 1.43-.47 2.17s-.1 1.46-.13 2.17l.04.89c-.23 1.33-.46 2.68-.68 4.04-.23 1.36-.6 2.64-1.11 3.83-.64.26-1.36.35-2.13.26zm-20.09 3.75c-.37-.06-.61-.27-.72-.64v-.51c.11-.37.36-.6.72-.68h.43c.37.08.61.31.72.68v.51c-.11.37-.35.58-.72.64h-.43zm11.96.55c-.37-.11-.6-.36-.68-.72v-.47c.08-.37.31-.61.68-.72h.47c.37.11.61.35.72.72v.47c-.11.37-.36.61-.72.72h-.47z"/></g></svg>
